<svg xmlns="http://www.w3.org/2000/svg" width="1024" height="1024" viewBox="0 0 1024 1024"><path d="M410.829,477.758c0,0,96.303-7.19,96.303-120.172c0-112.942-78.799-168.029-178.657-168.029H144.769h-5.422 H0V820.84h139.347h5.422h183.746c0,0,200.582,6.287,200.582-186.358C529.096,634.481,537.779,477.758,410.829,477.758z M144.769,301.695H304.88h23.595c0,0,44.654,0,44.654,65.714c0,65.656-26.266,75.184-56.049,75.184H144.769V301.695z M319.261,708.664H144.769V539.947h183.746c0,0,66.579-0.905,66.579,86.676C395.093,700.451,345.351,708.113,319.261,708.664zM796.551,350.141c-242.761,0-242.583,242.535-242.583,242.535s-16.68,241.366,242.583,241.366 c0,0,215.984,12.337,215.984-167.932H901.458c0,0,3.635,67.936-101.213,67.936c0,0-111.136,7.426-111.136-109.898h327.179 C1016.288,624.147,1052.062,350.141,796.551,350.141z M687.872,539.947c0,0,13.613-97.315,111.154-97.315 c97.501,0,96.244,97.315,96.244,97.315H687.872zM660.701 226.688H921.183V304.406H660.701z"/></svg>
