<svg xmlns="http://www.w3.org/2000/svg" width="1024" height="1024" viewBox="0 0 1024 1024"><path d="M410.83 477.758s96.302-7.19 96.302-120.172c0-112.942-78.8-168.03-178.657-168.03H0V820.84h328.514s200.582 6.287 200.582-186.358c0 0 8.682-156.724-118.268-156.724zM144.77 301.695h183.705s44.654 0 44.654 65.714c0 65.652-26.27 75.18-56.05 75.18H144.77V301.695zm174.49 406.97H144.77v-168.72h183.745s66.58-.904 66.58 86.677c-.002 73.828-49.744 81.49-75.834 82.04zM796.55 350.14c-242.76 0-242.582 242.536-242.582 242.536s-16.68 241.366 242.583 241.366c0 0 215.988 12.337 215.988-167.932h-111.08s3.636 67.936-101.212 67.936c0 0-111.136 7.426-111.136-109.898h327.176S1052.062 350.14 796.55 350.14zM687.873 539.948s13.613-97.315 111.154-97.315c97.5 0 96.244 97.315 96.244 97.315H687.875zM660.7 226.688h260.483v77.718H660.7z"/></svg>