<svg xmlns="http://www.w3.org/2000/svg" viewBox="0 0 1280 1280" height="1280" width="1280"><defs><clipPath id="a"><path d="M0 1024h1024V0H0v1024z"/></clipPath></defs><path d="M641.3 513.4c-104.548 0-189.58 85.13-189.58 189.68 0 104.446 85.03 189.426 189.58 189.426 104.645 0 189.627-84.98 189.627-189.426 0-104.55-84.982-189.68-189.628-189.68m-.005 436.195c-135.965 0-246.563-110.49-246.563-246.507 0-136.072 110.598-246.775 246.563-246.775 136.07 0 246.72 110.703 246.72 246.775 0 136.016-110.65 246.507-246.72 246.507M1242.47 305.86H903.626L860.8 182.87c-3.767-7.535-11.462-12.417-19.847-12.417H454.246c-8.385 0-16.134 4.883-19.955 12.417l-42.714 122.99H286.79v-39.99c0-12.312-9.978-22.342-22.29-22.342H114.95c-12.34 0-22.315 10.03-22.315 22.342v39.987h-52.54c-12.313 0-22.237 10.03-22.237 22.29v749.61c0 12.364 9.924 22.29 22.237 22.29H1242.47c12.313 0 22.29-9.926 22.29-22.29V328.15c0-12.26-9.977-22.29-22.29-22.29" clip-path="url(#a)"/></svg>