<svg xmlns="http://www.w3.org/2000/svg" width="1024" height="1024" viewBox="0 0 1024 1024"><circle cx="515.757" cy="519.09" r="468.478" fill="none"/><path fill="#231F20" d="M529.857 199.98c0 7.787-6.313 14.1-14.1 14.1-7.788 0-14.103-6.312-14.103-14.1v-90.875c0-7.788 6.314-14.1 14.102-14.1 7.787 0 14.1 6.312 14.1 14.1v90.875zm0 735.362c0 7.787-6.313 14.1-14.1 14.1-7.788 0-14.103-6.312-14.103-14.1v-90.875c0-7.787 6.314-14.1 14.102-14.1 7.787 0 14.1 6.312 14.1 14.1v90.875zm307.447-401.107c-7.788 0-14.102-6.313-14.102-14.1 0-7.79 6.313-14.103 14.102-14.103h90.874c7.788 0 14.102 6.313 14.102 14.102 0 7.787-6.313 14.1-14.102 14.1h-90.874zm-720.738 0c-7.788 0-14.1-6.313-14.1-14.1 0-7.79 6.312-14.103 14.1-14.103h90.875c7.79 0 14.105 6.313 14.105 14.102 0 7.787-6.313 14.1-14.1 14.1H116.57zm226.132-86.925c-6.317-4.553-7.745-13.367-3.19-19.683 4.555-6.317 13.367-7.746 19.685-3.19l166.504 121.616c6.317 4.555 7.745 13.368 3.19 19.685-4.555 6.316-13.367 7.747-19.686 3.19L342.7 447.31zM691.23 308.673c4.554-6.318 13.366-7.745 19.683-3.19s7.747 13.367 3.192 19.685L531.29 565.946c-4.554 6.32-13.367 7.746-19.684 3.192-6.317-4.555-7.747-13.37-3.19-19.686l182.813-240.78z"/></svg>