<svg xmlns="http://www.w3.org/2000/svg" viewBox="0 0 1280 1280" height="1280" width="1280"><defs><clipPath id="a"><path d="M0 1024h1024V0H0v1024z"/></clipPath></defs><path d="M752.983 640.592h.49l-.477-.48.478-.477h-.49l495.175-495.177c31.454-31.458 31.454-82.42 0-113.808-31.46-31.46-82.358-31.46-113.81 0L638.94 526.06 143.527 30.65C112.073-.81 61.177-.81 29.72 30.65c-31.458 31.388-31.458 82.35 0 113.808l495.178 495.176h-.49l.477.478-.478.48h.492L29.72 1135.768c-31.458 31.458-31.458 82.418 0 113.808 31.458 31.458 82.353 31.458 113.808 0l495.414-495.41 495.41 495.41c31.453 31.458 82.35 31.458 113.807 0 31.454-31.388 31.454-82.348 0-113.808L752.98 640.592z" clip-path="url(#a)"/></svg>