<svg xmlns="http://www.w3.org/2000/svg" viewBox="0 0 1280 1280"><defs><clipPath id="a"><path d="m 0,1024 1024,0 L 1024,0 0,0 0,1024 Z"/></clipPath></defs><g transform="matrix(1.25 0 0 -1.25 0 1280)"><g><g clip-path="url(#a)"><g transform="translate(887.588 698.476)"><path d="m 0,0 -190.579,190.365 28.908,28.866 L 28.822,28.738 0,0 Z m -830.982,-640.359 -0.084,154.76 154.972,-154.973 -154.888,0.213 z M 66.547,257.084 c -64.43,64.303 -176.674,64.176 -240.849,-0.127 l -53.834,-53.876 c -0.084,-0.041 -0.084,0 -0.167,-0.041 -0.088,-0.087 0,-0.128 -0.088,-0.171 L -861.417,-430.07 c -3.305,-3.221 -5.171,-7.633 -5.171,-12.549 l 0,-215.544 c 0,-9.831 8.055,-17.803 17.805,-17.803 l 215.586,-0.168 c 4.916,0 9.325,2.035 12.545,5.21 L 12.629,-37.768 66.547,16.106 c 66.295,66.423 66.295,174.513 0,240.978"/></g></g></g></g></svg>
