<svg xmlns="http://www.w3.org/2000/svg" viewBox="0 0 1024 1024" height="1024" width="1024"><defs><clipPath id="a"><path d="M0 1024h1024V0H0v1024z"/></clipPath></defs><path d="M1109.485 406.906L871.26 168.95l36.136-36.083 238.116 238.117-36.027 35.922zM-1038.727 800.45l-.105-193.45 193.715 193.714-193.61-.266zm1537.4-4003.422c-80.537-80.378-220.842-80.22-301.06.16l-67.293 67.344c-.105.052-.105 0-.21.052-.11.11 0 .16-.11.214L-869.025-903.22c-4.13 4.026-6.463 9.54-6.463 15.686v269.43c0 12.29 10.07 22.254 22.257 22.254l269.48.21c6.143 0 11.655-2.544 15.68-6.513l791.6-791.445 67.398-67.342c82.867-83.03 82.867-218.14 0-301.223" clip-path="url(#a)"/></svg>