<svg xmlns="http://www.w3.org/2000/svg" fill="#E53729" width="1024" height="1024" viewBox="0 0 1024 1024"><g><path d="M695.763,243.15H894.23L653.885,7.357v202.108C653.885,209.466,653.885,243.15,695.763,243.15zM498.015,329.837c-0.384,0.057-0.918,0.178-1.643,0.434c-1.671,0.569-3.016,1.5-4.154,4.246 c-4.381,10.483-0.917,30.405,5.783,51.822C503.555,349.439,500.61,333.771,498.015,329.837zM349.346,717.83c-0.174,1.585-0.629,5.811,7.344,12.07c2.54-0.825,17.361-7.746,44.965-59.909 C365.247,690.93,350.406,708.128,349.346,717.83zM461.158,609.655c35.583-14.131,74.304-26.465,110.649-35.221c-22.987-27.326-45.968-61.466-65.108-96.651 C494.516,520.914,478.434,567.486,461.158,609.655zM631.196,592.899c13.868,10.924,26.145,16.899,35.228,16.899c3.99,0,9.24-0.961,14.488-8.486 c2.539-3.648,3.528-5.98,3.911-7.225c-2.091-1.139-8.222-3.485-23.37-3.485C652.859,590.603,642.641,591.384,631.196,592.899zM640.534,216.642V6.177H191.506c-16.145,0-29.235,13.016-29.235,29.068v951.869c0,16.054,13.09,29.062,29.235,29.062 h672.382c16.146,0,29.238-13.009,29.238-29.062V256.109H689.604C640.534,256.109,640.534,216.642,640.534,216.642z M710.898,580.716c5.44,10.846,3.214,23.521-6.658,37.66c-9.487,13.593-22.56,20.768-37.816,20.768 c-20.726,0-44.83-13.405-71.744-39.837c-48.336,10.328-104.773,28.778-150.378,49.197c-14.247,30.933-27.902,55.84-40.591,74.106 c-17.44,25.057-32.49,36.735-47.39,36.735c-5.929,0-11.633-1.971-16.477-5.69c-17.743-13.606-20.121-28.762-18.987-39.097 c3.094-28.373,37.383-58.088,101.943-88.352c25.619-57.455,49.986-128.266,64.517-187.414c-16.992-37.874-33.506-87-21.465-115.819 c4.218-10.092,11.629-17.198,21.458-20.548c3.876-1.33,7.682-2.006,11.281-2.006c8.591,0,16.273,3.841,21.614,10.812 c5.028,6.558,20.164,26.302-2.609,124.433c22.958,48.536,55.484,97.975,86.658,131.837c22.333-4.146,41.551-6.245,57.199-6.245 C688.139,561.256,704.298,567.628,710.898,580.716z"/></g></svg>
