<svg xmlns="http://www.w3.org/2000/svg" width="1024" height="1024" viewBox="0 0 1024 1024"><path d="M419.77 261.5c-77.375-30.163-155.064-59.548-232.656-89.102h-1.392c12.096 26.093 23.63 52.452 35.456 78.666 66.18 3.635 132.385 6.95 198.592 10.437zm352.266-75.665c-62.4-.048-124.803-.024-187.206-.024 21.195 28.34 42.456 56.65 63.696 84.96 124.364-28.46 248.824-56.43 373.014-85.57-83.175.294-166.352-.632-249.504.635zm-200.373-.195c-35.82 25.628-71.325 51.72-106.707 77.91 56.938 3.293 113.95 5.535 170.937 8.39-21.043-29.02-43.134-57.282-64.23-86.3zM440.52 272.962c-146.308-7.705-292.643-15.387-438.977-22.872v.584C97.157 354.58 193.16 458.117 289.163 561.656 339.69 465.458 390.19 369.258 440.52 272.962zM295.993 569.387c48.28 51.965 96.37 104.1 144.48 156.21 50.794-50.82 102.27-100.978 153.21-151.628 3.366-5.146 3.05-11.73 4.342-17.56 15.266-91.32 30.85-182.594 46.135-273.917-64.446-2.853-128.872-6.194-193.322-8.948-51.284 98.784-103.442 197.103-154.845 295.84zm-61.597 357.705c10.387-7.413 18.36-17.46 27.896-25.853 56.646-56.357 113.876-112.1 170.475-168.525-40.138-43.162-79.934-86.642-120.07-129.803-25.923 108.1-52.94 215.953-78.3 324.177z" fill="#231F20"/></svg>