<svg xmlns="http://www.w3.org/2000/svg" viewBox="0 0 1024 1024"><path d="M511.23 9c-281.66 0-510 228.308-510 510.062 0 225.23 146.08 416.37 348.784 483.873 25.524 4.64 34.832-11.15 34.832-24.62 0-12.103-.397-44.187-.714-86.755-141.855 30.814-171.763-68.346-171.763-68.346-23.21-58.912-56.66-74.54-56.66-74.54-46.29-31.704 3.54-31.038 3.54-31.038 51.23 3.604 78.15 52.544 78.15 52.544 45.44 77.956 119.35 55.368 148.43 42.345 4.59-32.99 17.752-55.37 32.32-68.14-113.267-12.834-232.297-56.703-232.297-252.1 0-55.593 19.9-101.178 52.446-136.79-5.21-12.936-22.698-64.763 5.05-135.007 0 0 42.76-13.7 140.235 52.32 40.677-11.34 84.357-17.012 127.67-17.202 43.33.19 86.98 5.86 127.655 17.2 97.43-66.018 140.19-52.318 140.19-52.318 27.78 70.244 10.293 122.072 5.035 135.008 32.62 35.61 52.43 81.196 52.43 136.788 0 195.97-119.3 239.077-232.9 251.722 18.28 15.738 34.64 46.79 34.64 94.393 0 68.18-.62 123.17-.62 139.91 0 13.623 9.23 29.443 35.088 24.46 202.45-67.51 348.45-258.55 348.45-483.718C1021.233 237.31 792.955 9 511.233 9"/></svg>
