<svg id="import" x="0px" y="0px" width="1024px" height="1024px" viewBox="0 0 1024 1024" enable-background="new 0 0 1024 1024" xml:space="preserve"><path d="M531.904 627.239c0 4.715 1.807 9.47 5.415 13.083 7.225 7.176 18.938 7.176 26.137 0l124.066-124.181c7.221-7.176 7.221-18.934 0-26.154L563.456 365.987c-7.198-7.223-18.912-7.223-26.137 0 -7.219 7.22-7.219 18.845 0 26.068l92.518 92.561H40c-10.172 0-18.494 8.276-18.494 18.449 0 10.26 8.322 18.534 18.494 18.534h589.837l-92.518 92.563C533.711 617.777 531.904 622.528 531.904 627.239"/><rect fill="none" width="1024" height="1024"/><path d="M980.566 11.614H364.099c-14.888 0-27 12.112-27 27v394.358h30V41.614h610.468v938.952H367.099V574.463h-30v409.104c0 14.888 12.112 27 27 27h616.468c14.888 0 27-12.112 27-27V38.614C1007.566 23.727 995.454 11.614 980.566 11.614z"/></svg>
