<svg xmlns="http://www.w3.org/2000/svg" width="1024" height="1024" viewBox="0 0 1024 1024"><path stroke="#231F20" stroke-width="37.956" stroke-miterlimit="10" d="M927.673 907.508c0 40.312-32.68 72.992-72.992 72.992H203.586c-40.313 0-72.993-32.68-72.993-72.992V425.753c0-40.313 32.68-72.993 72.993-72.993h651.1c40.31 0 72.99 32.68 72.99 72.993v481.755z" fill="none"/><path fill="#231F20" d="M598.205 598.478c0-38.15-30.925-69.075-69.074-69.075-38.144 0-69.07 30.926-69.07 69.075 0 21.938 10.24 41.474 26.187 54.126L459.38 790.042c0 11.74 9.514 21.254 21.252 21.254h95.343c11.738 0 21.253-9.515 21.253-21.254l-24.343-138.12c15.455-12.668 25.32-31.9 25.32-53.444z"/><path stroke="#231F20" stroke-width="36.074" stroke-miterlimit="10" d="M823.275 351.3V172.25c0-76.63-62.12-138.748-138.747-138.748H373.734c-76.627 0-138.747 62.12-138.747 138.748V351.3h588.288z" fill="none"/></svg>