<svg xmlns="http://www.w3.org/2000/svg" width="1024" height="1024" viewBox="0 0 1024 1024"><g fill="#231F20"><path d="M844.68 344.175V617.6c14.804-.016 29.61 0 44.412 0-.017-91.13-.017-182.278 0-273.41-14.803-.048-29.61-.015-44.41-.015zM160 359.576c-19.402-12.68-43.434-17.658-66.336-14.587-31.633 3.616-61.025 23.084-76.177 51.148C3.23 422.162 1.073 454.656 12.44 482.14c10.837 26.588 33.393 48.146 60.51 57.64 41.508 15.25 91.563-1.692 115.943-38.405 16-22.82 21.06-52.494 14.787-79.512-5.71-25.394-21.707-48.312-43.68-62.287zm-16.4 132.887c-22.238 18.42-57.936 17.493-78.615-2.938-22.47-20.48-25.642-58.353-6.39-82.003 9.062-11.584 22.306-19.833 36.712-22.77 24.512-4.946 51.067 8.15 62.634 30.206 14.008 24.912 8.398 59.614-14.34 77.505zM343.105 349.303c-37.557-7.65-76.093-4.43-114.15-5.128V617.6c23.236-.132 46.47.347 69.706-.382 23.418-.282 47.3-2.706 69.175-11.585 49.208-19.352 79.58-72.408 79.38-124.174-.465-34.72-13.078-69.54-36.43-95.446-17.51-19.583-42.153-31.6-67.68-36.71zm51.7 166.877c-8.45 21.242-25.427 39.217-46.703 47.845-23.02 9.776-48.562 9.196-73.09 9.18V388.14c23.185.315 47.066-.1 69.173 7.95 17.857 6.207 33.076 19.02 42.95 35.05 15.535 25.076 18.74 57.605 7.67 85.04zM799.937 514.62c-20.745-14.025-46.07-17.775-68.758-27.468-6.407-3.004-13.544-6.457-16.682-13.194-2.572-6.705-.38-14.97 5.278-19.45 7.038-5.644 16.515-6.94 25.275-6.54 18.656.83 36.28 8.182 52.1 17.675 7.766-10.572 15.614-21.06 23.3-31.682-24.73-15.8-54.02-25.773-83.58-24.478-19.034 1.078-38.586 7.684-51.862 21.874-15.036 15.318-19.584 39.1-13.61 59.398 4.2 14.024 15.65 24.58 28.33 31.135 21.757 11.798 47.367 13.757 69.09 25.54 7.768 3.8 12.93 12.812 9.91 21.376-3.172 11.586-16.266 15.884-27.037 16.3-26.088 1.126-50.932-10.357-71.512-25.544-7.567 10.855-15.086 21.724-22.804 32.446 26.736 20.68 60.527 32.795 94.483 31.684 19.435-.75 39.747-6.107 54.12-19.884 15.335-14.454 20.646-37.274 16.795-57.572-2.54-13.293-11.75-24.314-22.835-31.617zM1013.116 413.896c-17.31-.033-34.636-.033-51.945 0-23.252 34.188-46.702 68.228-69.887 102.467 24.812 33.74 49.605 67.497 74.418 101.237 19.817-.05 39.632.08 59.465-.068-28.43-34.752-57.108-69.29-85.636-103.94 24.528-33.228 49.14-66.404 73.586-99.696zM593.743 415.788c-29.475-9.758-63.663-6.954-89.818 10.34-23.583 15.268-39.234 41.16-43.88 68.642-4.233 25.973-1.18 53.855 12.13 76.892 12.216 21.64 33.376 37.672 57.16 44.576 20.61 5.926 43.248 7.203 63.68-.117 27.135-9.077 50.204-30.484 59.398-57.82-14.938.166-29.874-.35-44.795-.463-6.04 10.538-15.434 19.518-27.384 22.735-20.13 5.48-43.963.532-58.17-15.352-8.613-9.276-12.63-21.69-14.97-33.89 49.805-.1 99.594.05 149.4-.084 1.56-25.358-2.39-51.63-14.705-74.118-10.224-19.018-27.416-34.503-48.047-41.34zm-86.482 83.114c2.64-13.858 7.85-27.915 18.473-37.674 17.725-16.978 49.058-16.778 66.236.914 9.757 9.774 14.256 23.384 16.213 36.76-33.64.05-67.282.034-100.922 0zM157.277 573.12c-24.812-15.9-57.075-19.335-84.674-9.044-25.11 8.996-45.822 28.928-56.194 53.455 59.595.15 119.177.02 178.757.07-7.9-18.14-21.012-34.022-37.89-44.48z"/></g></svg>