<svg xmlns="http://www.w3.org/2000/svg" viewBox="0 0 1280 1280" height="1280" width="1280"><defs><clipPath id="a"><path d="M0 1024h1024V0H0v1024z"/></clipPath></defs><path d="M511.37 662.89l.493.492-.493.493h.507v-.986h-.506z" fill="#231f20"/><g clip-path="url(#a)"><path d="M68.655 463.62c0-232.66 188.61-421.27 421.27-421.27 232.664 0 421.27 188.61 421.27 421.27 0 232.662-188.606 421.272-421.27 421.272-232.66 0-421.27-188.61-421.27-421.27" fill="#fff"/><path d="M68.655 463.62c0-232.66 188.61-421.27 421.27-421.27 232.664 0 421.27 188.61 421.27 421.27 0 232.662-188.606 421.272-421.27 421.272-232.66 0-421.27-188.61-421.27-421.27z" stroke="#231f20" stroke-width="64.412" stroke-miterlimit="10" fill="none"/><path d="M1224.58 1172.675c21.883 21.884 21.883 57.364 0 79.248-21.886 21.88-57.366 21.88-79.246 0l-408.442-406.88c-21.88-21.884-21.88-57.364 0-79.25 21.885-21.882 57.364-21.882 79.25 0l408.438 406.882z" fill="#231f20"/></g></svg>