<svg xmlns="http://www.w3.org/2000/svg" viewBox="0 0 1280 1280" height="1280" width="1280"><defs><clipPath id="a"><path d="m 0,1024 1024,0 L 1024,0 0,0 0,1024 Z"/></clipPath></defs><g transform="matrix(1.25 0 0 -1.25 0 1280)"><g transform="translate(409.097 493.689)"><path d="m 0,0 0.394,-0.394 -0.395,-0.395 0.406,0 L 0.404,0 0,0 Z" fill="#231f20"/></g><g><g clip-path="url(#a)"><g transform="translate(54.924 653.103)"><path d="m 0,0 c 0,186.129 150.888,337.017 337.017,337.017 186.13,0 337.016,-150.888 337.016,-337.017 0,-186.129 -150.886,-337.017 -337.016,-337.017 C 150.888,-337.017 0,-186.129 0,0" fill="#fff"/></g><g transform="translate(54.924 653.103)"><path d="m 0,0 c 0,186.129 150.888,337.017 337.017,337.017 186.13,0 337.016,-150.888 337.016,-337.017 0,-186.129 -150.886,-337.017 -337.016,-337.017 C 150.888,-337.017 0,-186.129 0,0 Z" stroke="#231f20" stroke-width="51.53" stroke-miterlimit="10" fill="none"/></g><g transform="translate(979.664 85.86)"><path d="m 0,0 c 17.506,-17.507 17.506,-45.891 0,-63.398 -17.509,-17.505 -45.893,-17.505 -63.397,0 L -390.15,262.106 c -17.505,17.507 -17.505,45.891 0,63.399 17.508,17.506 45.891,17.506 63.399,0 L 0,0 Z" fill="#231f20"/></g></g></g></g></svg>
