<svg xmlns="http://www.w3.org/2000/svg" viewBox="0 0 1280 1280"><defs><clipPath id="a"><path d="m 0,1024 1024,0 L 1024,0 0,0 0,1024 Z"/></clipPath></defs><g transform="matrix(1.25 0 0 -1.25 0 1280)"><g transform="translate(403.097 494.689)"><path d="m 0,0 0.394,-0.393 -0.396,-0.396 0.406,0 L 0.403,0 0,0 Z" fill="#231f20"/></g><g><g clip-path="url(#a)"><g transform="translate(33.924 516.102)"><path d="M 0,0 C 0,264.001 214.016,478.018 478.018,478.018 742.021,478.018 956.034,264.001 956.034,0 956.034,-264.002 742.021,-478.018 478.018,-478.018 214.016,-478.018 0,-264.002 0,0" fill="#fff"/></g><g transform="translate(511.941 968.962)"><path d="m 0,0 c -61.146,0 -120.451,-11.97 -176.266,-35.578 -53.923,-22.808 -102.356,-55.464 -143.954,-97.062 -41.598,-41.598 -74.255,-90.031 -97.062,-143.955 -23.608,-55.814 -35.577,-115.118 -35.577,-176.265 0,-61.146 11.969,-120.451 35.577,-176.265 22.807,-53.924 55.464,-102.357 97.062,-143.955 41.598,-41.598 90.031,-74.254 143.954,-97.062 55.815,-23.608 115.12,-35.577 176.266,-35.577 61.146,0 120.451,11.969 176.266,35.577 53.923,22.808 102.356,55.464 143.954,97.061 41.597,41.599 74.254,90.032 97.061,143.956 23.608,55.814 35.577,115.119 35.577,176.265 0,61.147 -11.969,120.451 -35.577,176.266 -22.807,53.923 -55.464,102.356 -97.061,143.954 -41.598,41.598 -90.031,74.254 -143.954,97.062 C 120.451,-11.97 61.146,0 0,0 m 0,-956.036 c -67.917,0 -133.816,13.308 -195.866,39.553 -59.921,25.344 -113.73,61.622 -159.933,107.824 -46.202,46.203 -82.48,100.012 -107.824,159.933 -26.245,62.05 -39.553,127.949 -39.553,195.866 0,67.917 13.308,133.816 39.553,195.866 25.344,59.921 61.622,113.73 107.824,159.932 46.203,46.204 100.012,82.48 159.933,107.825 62.05,26.245 127.949,39.553 195.866,39.553 67.918,0 133.816,-13.308 195.867,-39.553 59.92,-25.345 113.73,-61.621 159.932,-107.825 46.202,-46.202 82.479,-100.011 107.823,-159.932 26.245,-62.05 39.553,-127.949 39.553,-195.866 0,-67.917 -13.308,-133.816 -39.553,-195.866 -25.344,-59.921 -61.621,-113.73 -107.823,-159.933 -46.202,-46.202 -100.012,-82.48 -159.933,-107.824 C 133.816,-942.728 67.918,-956.036 0,-956.036" fill="#231f20"/></g><g transform="translate(842.065 167.359)"><path d="M 0,0 -678.068,678.067 -642.49,713.646 35.578,35.578 0,0 Z" fill="#231f20"/></g></g></g></g></svg>
