<svg xmlns="http://www.w3.org/2000/svg" viewBox="0 0 1280 1280" height="1280" width="1280"><defs><clipPath id="a"><path d="M0 1024h1024V0H0v1024z"/></clipPath></defs><path d="M503.872 661.64l.493.49-.495.495h.507v-.986h-.505z" fill="#231f20"/><g clip-path="url(#a)"><path d="M42.405 634.872c0-330 267.52-597.522 597.522-597.522 330.004 0 597.52 267.52 597.52 597.522 0 330.002-267.516 597.522-597.52 597.522-330.002 0-597.522-267.52-597.522-597.522" fill="#fff"/><path d="M639.927 68.797c-76.433 0-150.564 14.963-220.332 44.473-67.404 28.51-127.945 69.33-179.943 121.327-51.997 51.997-92.82 112.54-121.327 179.944-29.51 69.77-44.472 143.9-44.472 220.335 0 76.433 14.962 150.564 44.472 220.33 28.508 67.406 69.33 127.947 121.327 179.945 51.998 51.997 112.54 92.817 179.943 121.327 69.768 29.51 143.9 44.47 220.332 44.47 76.433 0 150.564-14.96 220.332-44.47 67.4-28.51 127.942-69.33 179.94-121.327 51.995-52 92.82-112.54 121.325-179.946 29.51-69.767 44.472-143.898 44.472-220.33 0-76.435-14.963-150.565-44.473-220.333-28.508-67.4-69.33-127.942-121.326-179.94-51.995-52-112.537-92.82-179.94-121.33-69.77-29.51-143.9-44.472-220.333-44.472m0 1195.045c-84.896 0-167.27-16.635-244.832-49.44-74.902-31.68-142.163-77.03-199.917-134.78-57.752-57.755-103.1-125.016-134.78-199.918-32.806-77.562-49.44-159.936-49.44-244.832 0-84.896 16.634-167.27 49.44-244.833 31.68-74.904 77.028-142.165 134.78-199.918 57.754-57.755 125.015-103.1 199.917-134.78C472.657 22.536 555.03 5.9 639.927 5.9c84.898 0 167.27 16.635 244.834 49.44 74.9 31.682 142.166 77.027 199.92 134.782 57.75 57.753 103.1 125.014 134.78 199.915 32.804 77.562 49.44 159.936 49.44 244.832 0 84.893-16.636 167.27-49.44 244.83-31.68 74.9-77.03 142.162-134.78 199.916-57.754 57.753-125.016 103.1-199.917 134.78-77.562 32.807-159.934 49.442-244.832 49.442" fill="#231f20"/><path d="M1052.582 1070.8L204.997 223.218l44.473-44.474 847.585 847.586-44.473 44.47z" fill="#231f20"/></g></svg>