<svg xmlns="http://www.w3.org/2000/svg" viewBox="0 0 1280 1280" height="1280" width="1280"><defs><clipPath id="a"><path d="M0 1024h1024V0H0v1024z"/></clipPath></defs><path d="M779.558 740.36c3.81 0 7.65-1.46 10.57-4.376 5.795-5.835 5.795-15.297 0-21.114L689.81 614.647c-5.797-5.834-15.294-5.834-21.127 0L568.513 714.87c-5.836 5.817-5.836 15.28 0 21.114 5.83 5.833 15.222 5.833 21.057 0l74.773-74.737v335.117c0 8.217 6.686 14.94 14.904 14.94 8.29 0 14.972-6.722 14.972-14.94V661.246l74.77 74.738c2.92 2.915 6.76 4.375 10.565 4.375m263.418-270.243c-7.275 0-14.585.345-21.855 1.03-19.874-74.284-63.357-141.374-123.53-190.13-31.92-25.866-67.618-46.022-106.098-59.91-39.82-14.37-81.665-21.656-124.375-21.656-72.22 0-142.086 20.995-202.05 60.71-54.65 36.203-98.354 85.963-127.046 144.496-19.97-4.674-40.475-7.04-61.135-7.04-147.39 0-267.3 119.91-267.3 267.3 0 136.523 102.86 250.378 236.834 265.566v1.732h397.33v-31.93H270.33l-7.034-.4C138.936 892.807 41.52 789.597 41.52 664.914c0-129.78 105.586-235.37 235.37-235.37 22.26 0 44.308 3.115 65.526 9.254l13.363 3.864 5.655-12.708c25.96-58.313 67.893-107.82 121.266-143.172 54.72-36.245 118.488-55.402 184.416-55.402 39.004 0 77.2 6.65 113.535 19.76 35.114 12.674 67.694 31.07 96.834 54.684 58.406 47.323 99.582 113.533 115.946 186.432l3.28 14.62 14.8-2.35c10.375-1.645 20.96-2.48 31.46-2.48 109.793 0 199.116 89.325 199.116 199.12 0 109.794-89.324 199.116-199.116 199.116-3.727 0-7.495-.103-11.2-.31l-16.85-.935v1.244H721.25v31.935h325.604v-.033c125.614-2.08 227.166-104.913 227.166-231.014 0-127.4-103.647-231.05-231.046-231.05" clip-path="url(#a)" fill="#231f20"/></svg>