<svg version="1.1" id="Layer_1" xmlns="http://www.w3.org/2000/svg" xmlns:xlink="http://www.w3.org/1999/xlink" x="0px" y="0px"
     width="1024px" height="1024px" viewBox="0 0 1024 1024" enable-background="new 0 0 1024 1024" xml:space="preserve" fill="#2f40d1">
<g>
    <path d="M508.865,797.904c7.977,8.028,21.048,8.028,29.074,0l137.85-137.922c8.029-8.002,8.029-21.024,0-29.056
        c-8.026-8.026-20.95-8.026-28.98,0L543.91,733.777v-633.48c0-11.308-9.2-20.56-20.51-20.56c-11.405,0-20.603,9.252-20.603,20.56
        v633.48L399.896,630.927c-4.02-4.012-9.3-6.02-14.538-6.02c-5.242,0-10.528,2.008-14.544,6.02c-7.977,8.031-7.977,21.053,0,29.056
        L508.865,797.904z"/>
    <path d="M989.324,840.486H35.084c-11.308,0-20.56,9.2-20.56,20.51c0,11.406,9.252,20.603,20.56,20.603h954.24
        c11.308,0,20.56-9.2,20.56-20.51C1009.884,849.684,1000.632,840.486,989.324,840.486z"/>
</g>
</svg>
