<svg xmlns="http://www.w3.org/2000/svg" width="1024" height="1024" viewBox="0 0 1024 1024"><g><path d="M695.764,243.15H894.23L653.885,7.357v202.108C653.885,209.466,653.885,243.15,695.764,243.15zM640.535,216.642V6.177H191.503c-16.146,0-29.232,13.016-29.232,29.068v951.87c0,16.053,13.087,29.062,29.232,29.062 h672.385c16.146,0,29.24-13.009,29.24-29.062V256.109H689.604C640.535,256.109,640.535,216.642,640.535,216.642z M432.659,349.667 h189.362v36.416H432.659V349.667z M483.641,830.356H294.278V793.94h189.362V830.356z M760.401,742.958H294.278v-36.416h466.123 V742.958z M760.401,655.561H294.278v-36.416h466.123V655.561z M760.401,560.879H294.278v-36.416h466.123V560.879z M760.401,473.48 H294.278v-36.416h466.123V473.48z"/></g></svg>