<svg xmlns="http://www.w3.org/2000/svg" width="1024" height="1024" viewBox="0 0 1024 1024"><g><path d="M694.766,242.974h198.467L652.888,7.181v202.108C652.888,209.289,652.888,242.974,694.766,242.974zM639.538,216.465V6H190.506c-16.146,0-29.232,13.016-29.232,29.068v951.87c0,16.053,13.087,29.062,29.232,29.062h672.386 c16.145,0,29.239-13.009,29.239-29.062V255.933H688.606C639.538,255.933,639.538,216.465,639.538,216.465z M419.144,479.179 h-66.915v52.006h62.705v23.102h-62.705v68.28h-26.97V456.19h93.885V479.179z M471.833,622.566h-27.198V456.19h27.198V622.566z M608.74,622.566h-97.632V456.19h27.19v143.047h70.441V622.566z M726.872,479.179h-66.915v45.293h62.704v22.76h-62.704v52.233 h66.915v23.102H632.76V456.19h94.112V479.179z"/></g></svg>