<svg xmlns="http://www.w3.org/2000/svg" width="1024" height="1024" viewBox="0 0 1024 1024"><g><path d="M694.766,242.973h198.467L652.887,7.181v202.108C652.887,209.289,652.887,242.973,694.766,242.973zM639.538,216.466V6H190.505c-16.145,0-29.231,13.016-29.231,29.068v951.87c0,16.053,13.087,29.062,29.231,29.062h672.387 c16.144,0,29.238-13.009,29.238-29.062V255.932H688.606C639.538,255.932,639.538,216.466,639.538,216.466z M419.933,824.718 H296.012v-49.568h123.921V824.718z M419.933,728.776H296.012v-49.574h123.921V728.776z M419.933,632.826H296.012V583.26h123.921 V632.826z M419.933,536.883H296.012v-49.567h123.921V536.883z M419.933,440.936H296.012v-49.568h123.921V440.936z M587.126,824.718 H463.198v-49.568h123.928V824.718z M587.126,728.773H463.198v-49.571h123.928V728.773z M587.126,632.826H463.198V583.26h123.928 V632.826z M587.126,536.883H463.198v-49.571h123.928V536.883z M587.126,440.936H463.198v-49.568h123.928V440.936z M751.21,824.718 H627.289v-49.568H751.21V824.718z M751.21,728.773H627.289v-49.571H751.21V728.773z M751.21,632.826H627.289V583.26H751.21V632.826 z M751.21,536.883H627.289v-49.571H751.21V536.883z M751.21,440.936H627.289v-49.568H751.21V440.936z"/></g></svg>