<svg xmlns="http://www.w3.org/2000/svg" width="1024" height="1024" viewBox="0 0 1024 1024"><g><path d="M694.76,242.973h198.467L652.885,7.182v202.109C652.885,209.291,652.885,242.973,694.76,242.973zM639.535,216.464V6H190.502c-16.143,0-29.229,13.018-29.229,29.067v951.87c0,16.055,13.086,29.062,29.229,29.062h672.383 c16.143,0,29.248-13.008,29.248-29.062V255.932H688.607C639.535,255.932,639.535,216.464,639.535,216.464z M699.359,498.227 l-16.006,2.373c-4.717-63.213-36.182-94.829-94.365-94.829c-19.678,0-29.492,6.729-29.492,20.156V699.14 c0,36.353,21.328,54.521,64.004,54.521v17.783H437.406v-17.783c42.266,0,63.418-18.169,63.418-54.521V425.927 c0-14.614-9.688-21.934-29.043-21.934c-26.084,0-47.217,8.398-63.418,25.19c-16.211,16.802-28.262,42.178-36.152,76.152 l-18.369-4.736l16.006-126.235c9.082,1.187,17.676,2.173,25.771,2.964c8.096,0.796,15.908,1.187,23.418,1.187h228.164 c8.301,0,16.797-0.391,25.488-1.187c8.691-0.791,17.568-1.777,26.67-2.964V498.227z"/></g></svg>