<svg version="1.1" id="Layer_1" xmlns="http://www.w3.org/2000/svg" xmlns:xlink="http://www.w3.org/1999/xlink" x="0px" y="0px"
     width="1024px" height="1024px" viewBox="0 0 1024 1024" enable-background="new 0 0 1024 1024" xml:space="preserve" fill="#d5d5d5">
<g>
    <path d="M526.662,357.268h-80.408v277.35h80.408c85.652,0,141.588-57.684,141.588-137.509v-1.166
        C668.25,416.118,612.314,357.268,526.662,357.268z"/>
    <path d="M511.002,4C232.098,4,6,229.625,6,507.939c0,278.33,226.098,503.948,505.002,503.948
        c278.899,0,504.998-225.618,504.998-503.948C1016,229.625,789.901,4,511.002,4z M743.415,495.943
        c0,114.786-88.565,203.934-216.752,203.934H374.586V292.01h152.076c128.187,0,216.752,87.982,216.752,202.768V495.943z"/>
</g>
</svg>
