<?xml version="1.0" encoding="utf-8"?>
<!-- Generator: Adobe Illustrator 16.0.0, SVG Export Plug-In . SVG Version: 6.00 Build 0)  -->
<!DOCTYPE svg PUBLIC "-//W3C//DTD SVG 1.1//EN" "http://www.w3.org/Graphics/SVG/1.1/DTD/svg11.dtd">
<svg version="1.1" id="Layer_1" xmlns="http://www.w3.org/2000/svg" xmlns:xlink="http://www.w3.org/1999/xlink" x="0px" y="0px"
	 width="1024px" height="1024px" viewBox="0 0 1024 1024" enable-background="new 0 0 1024 1024" xml:space="preserve">
<g>
	<circle fill="none" stroke="#231F20" stroke-width="26.5003" stroke-miterlimit="10" cx="515.757" cy="519.09" r="468.478"/>
	<path fill="#231F20" d="M529.857,199.98c0,7.787-6.313,14.101-14.101,14.101l0,0c-7.787,0-14.102-6.313-14.102-14.101v-90.875
		c0-7.788,6.314-14.101,14.102-14.101l0,0c7.787,0,14.101,6.313,14.101,14.101V199.98z"/>
	<path fill="#231F20" d="M529.857,935.342c0,7.787-6.313,14.1-14.101,14.1l0,0c-7.787,0-14.102-6.312-14.102-14.1v-90.875
		c0-7.787,6.314-14.101,14.102-14.101l0,0c7.787,0,14.101,6.313,14.101,14.101V935.342z"/>
	<path fill="#231F20" d="M837.304,534.235c-7.788,0-14.102-6.313-14.102-14.101l0,0c0-7.788,6.313-14.102,14.102-14.102h90.874
		c7.788,0,14.102,6.313,14.102,14.102l0,0c0,7.787-6.313,14.101-14.102,14.101H837.304z"/>
	<path fill="#231F20" d="M116.566,534.235c-7.788,0-14.1-6.313-14.1-14.101l0,0c0-7.788,6.312-14.102,14.1-14.102h90.875
		c7.788,0,14.101,6.313,14.101,14.102l0,0c0,7.787-6.313,14.101-14.101,14.101H116.566z"/>
	<path fill="#231F20" d="M342.698,447.311c-6.317-4.554-7.745-13.368-3.19-19.684l0,0c4.555-6.317,13.367-7.746,19.685-3.191
		l166.504,121.617c6.317,4.555,7.745,13.368,3.19,19.685l0,0c-4.555,6.316-13.367,7.747-19.686,3.19L342.698,447.311z"/>
	<path fill="#231F20" d="M691.229,308.673c4.555-6.318,13.367-7.745,19.684-3.19l0,0c6.317,4.555,7.747,13.367,3.192,19.685
		L531.291,565.946c-4.555,6.319-13.368,7.746-19.685,3.192l0,0c-6.317-4.555-7.747-13.369-3.191-19.686L691.229,308.673z"/>
</g>
</svg>
