<?xml version="1.0" encoding="utf-8"?>
<!-- Generator: Adobe Illustrator 16.0.0, SVG Export Plug-In . SVG Version: 6.00 Build 0)  -->
<!DOCTYPE svg PUBLIC "-//W3C//DTD SVG 1.1//EN" "http://www.w3.org/Graphics/SVG/1.1/DTD/svg11.dtd">
<svg version="1.1" id="Layer_1" xmlns="http://www.w3.org/2000/svg" xmlns:xlink="http://www.w3.org/1999/xlink" x="0px" y="0px"
	 width="1024px" height="1024px" viewBox="0 0 1024 1024" enable-background="new 0 0 1024 1024" xml:space="preserve">
<path fill="none" stroke="#231F20" stroke-width="37.9564" stroke-miterlimit="10" d="M927.673,907.508
	c0,40.312-32.681,72.992-72.992,72.992H203.582c-40.313,0-72.993-32.68-72.993-72.992V425.753c0-40.313,32.68-72.993,72.993-72.993
	h651.099c40.312,0,72.992,32.68,72.992,72.993V907.508z"/>
<path fill="#231F20" d="M598.205,598.478c0-38.149-30.925-69.075-69.074-69.075c-38.148,0-69.074,30.926-69.074,69.075
	c0,21.938,10.241,41.474,26.187,54.126l-26.865,137.438c0,11.739,9.515,21.254,21.253,21.254h95.343
	c11.738,0,21.253-9.515,21.253-21.254l-24.343-138.119C588.34,639.254,598.205,620.021,598.205,598.478z"/>
<path fill="none" stroke="#231F20" stroke-width="36.0742" stroke-miterlimit="10" d="M823.275,351.301V172.248
	c0-76.629-62.119-138.748-138.747-138.748H373.734c-76.627,0-138.747,62.119-138.747,138.748v179.053H823.275z"/>
</svg>
