<svg xmlns="http://www.w3.org/2000/svg" width="1024" height="1024" viewBox="0 0 1024 1024"><path fill="#231F20" d="M511.15 1021.73c-281.22 0-509.996-228.833-509.996-510.03S229.93 1.72 511.15 1.72c281.236 0 510.004 228.784 510.004 509.98s-228.767 510.03-510.004 510.03zm430.107-440.196c-14.875-4.738-134.818-40.48-271.327-18.63 56.982 156.557 80.17 284.074 84.604 310.615 97.736-66.088 167.304-170.77 186.723-291.986zM681.323 913.37c-6.51-38.224-31.78-171.413-92.95-330.32l-2.87.966C339.81 669.62 251.614 840.034 243.757 856.05c73.838 57.612 166.684 91.97 267.395 91.97 60.318 0 117.865-12.33 170.173-34.65zM187.507 803.663c9.87-16.89 129.427-214.845 354.1-287.458 5.657-1.885 11.41-3.585 17.147-5.205-10.926-24.753-22.852-49.53-35.308-73.928-217.527 65.112-428.632 62.396-447.688 61.985-.12 4.456-.25 8.847-.25 13.328 0 111.886 42.407 214.022 112 291.277zM84.717 423.157c19.484.266 198.963 1.048 402.712-53.058-72.148-128.332-150-236.205-161.512-251.933-121.845 57.45-212.95 169.81-241.2 304.99zm324.337-334.28c12.054 16.09 91.17 123.868 162.526 254.986 154.93-58.02 220.517-146.186 228.35-157.346C723.03 118.28 621.842 76.75 511.15 76.75c-35.147 0-69.326 4.19-102.096 12.127zm439.316 148.04c-9.2 12.4-82.218 105.997-243.27 171.73 10.12 20.787 19.837 41.865 28.926 63.113 3.175 7.518 6.3 15.01 9.362 22.504 144.938-18.258 288.972 10.982 303.347 13.996-.982-102.83-37.71-197.24-98.365-271.343z"/></svg>