<svg xmlns="http://www.w3.org/2000/svg" width="1024" height="1024" viewBox="0 0 1024 1024"><g fill="#231F20"><path d="M419.77 261.5c-77.375-30.163-155.064-59.548-232.656-89.102h-1.392c12.096 26.093 23.63 52.452 35.456 78.666 66.18 3.635 132.385 6.95 198.592 10.437zM772.036 185.835c-62.4-.048-124.803-.024-187.206-.024 21.195 28.336 42.456 56.647 63.696 84.96C772.89 242.31 897.35 214.34 1021.54 185.2c-83.175.292-166.352-.634-249.504.633zM571.663 185.64c-35.82 25.628-71.325 51.72-106.707 77.91 56.938 3.293 113.95 5.535 170.937 8.39-21.043-29.02-43.134-57.282-64.23-86.3zM440.52 272.962c-146.308-7.705-292.643-15.387-438.977-22.872v.584C97.157 354.58 193.16 458.117 289.163 561.656c50.527-96.198 101.027-192.398 151.358-288.694zM295.993 569.387c48.28 51.965 96.37 104.1 144.48 156.21 50.794-50.82 102.27-100.978 153.21-151.628 3.366-5.143 3.05-11.73 4.342-17.556 15.266-91.322 30.85-182.595 46.135-273.918-64.446-2.853-128.872-6.194-193.322-8.948-51.284 98.784-103.442 197.103-154.845 295.84zM234.396 927.092c10.387-7.413 18.36-17.46 27.896-25.853 56.646-56.354 113.876-112.097 170.475-168.522-40.138-43.162-79.934-86.642-120.07-129.803-25.923 108.1-52.94 215.953-78.3 324.177z"/></g></svg>