<svg xmlns="http://www.w3.org/2000/svg" width="1024" height="1024" viewBox="0 0 1024 1024"><g fill="#231F20"><path d="M511.686 1.976C230.106 1.976 1.8 230.283 1.8 511.862c0 281.812 228.308 510.342 509.886 510.342 281.81 0 510.113-228.53 510.113-510.342 0-281.58-228.304-509.886-510.114-509.886zm0 929.602c-231.536 0-419.254-187.952-419.254-419.716 0-231.537 187.72-419.256 419.254-419.256 231.767 0 419.488 187.72 419.488 419.256 0 231.763-187.722 419.716-419.488 419.716zM292.576 289.73c-52.902 0-95.78 42.88-95.78 95.81 0 52.875 42.878 95.753 95.78 95.753s95.797-42.878 95.797-95.753c0-52.93-42.894-95.81-95.797-95.81zM723.408 289.73c-52.887 0-95.78 42.88-95.78 95.81 0 52.875 42.894 95.753 95.78 95.753 52.903 0 95.783-42.878 95.783-95.753 0-52.93-42.878-95.81-95.782-95.81z"/></g></svg>