<svg xmlns="http://www.w3.org/2000/svg" width="1024" height="1024" viewBox="0 0 1024 1024"><g fill="#231F20"><path d="M17.738 340.24h211.166v678.397H17.738zM123.396 2.998C55.632 2.998 1 57.814 1 125.222 1 192.682 55.632 247.5 123.396 247.5c67.516 0 122.268-54.817 122.268-122.278 0-67.408-54.752-122.224-122.268-122.224zM766.043 323.373c-102.64 0-171.52 56.202-199.646 109.578h-2.858v-92.708H361.293v678.396h210.71V682.996c0-88.443 16.74-174.138 126.523-174.138 108.137 0 109.696 101.208 109.696 179.952v329.826H1019V646.53c0-182.7-39.497-323.157-252.957-323.157z"/></g></svg>