<?xml version="1.0" encoding="UTF-8" standalone="no"?>
<svg
   xmlns:dc="http://purl.org/dc/elements/1.1/"
   xmlns:cc="http://creativecommons.org/ns#"
   xmlns:rdf="http://www.w3.org/1999/02/22-rdf-syntax-ns#"
   xmlns:svg="http://www.w3.org/2000/svg"
   xmlns="http://www.w3.org/2000/svg"
   viewBox="0 0 1280 1280"
   height="1280"
   width="1280"
   xml:space="preserve"
   version="1.1"
   id="svg2"><metadata
     id="metadata8"><rdf:RDF><cc:Work
         rdf:about=""><dc:format>image/svg+xml</dc:format><dc:type
           rdf:resource="http://purl.org/dc/dcmitype/StillImage" /></cc:Work></rdf:RDF></metadata><defs
     id="defs6"><clipPath
       id="clipPath16"
       clipPathUnits="userSpaceOnUse"><path
         id="path18"
         d="m 0,1024 1024,0 L 1024,0 0,0 0,1024 Z" /></clipPath></defs><g
     transform="matrix(1.25,0,0,-1.25,0,1280)"
     id="g10"><g
       id="g12"><g
         clip-path="url(#clipPath16)"
         id="g14"><g
           transform="translate(602.3867,511.5264)"
           id="g20"><path
             id="path22"
             style="fill:#231f20;fill-opacity:1;fill-rule:nonzero;stroke:none"
             d="M 0,0 0.393,0 0.01,0.383 0.393,0.766 0,0.766 396.141,396.907 c 25.166,25.167 25.166,65.936 0,91.047 -25.166,25.167 -65.883,25.167 -91.045,0 L -91.235,91.626 -487.564,487.954 c -25.164,25.167 -65.88,25.167 -91.046,0 -25.167,-25.111 -25.167,-65.88 0,-91.047 l 396.142,-396.141 -0.392,0 0.382,-0.382 -0.383,-0.384 0.394,0 -396.143,-396.141 c -25.167,-25.166 -25.167,-65.934 0,-91.046 25.166,-25.167 65.882,-25.167 91.046,0 l 396.331,396.328 396.329,-396.329 c 25.162,-25.166 65.879,-25.166 91.045,0 25.166,25.111 25.166,65.879 0,91.047 L 0,0 Z" /></g></g></g></g></svg>