<?xml version="1.0" encoding="UTF-8" standalone="no"?>
<svg
   xmlns:dc="http://purl.org/dc/elements/1.1/"
   xmlns:cc="http://creativecommons.org/ns#"
   xmlns:rdf="http://www.w3.org/1999/02/22-rdf-syntax-ns#"
   xmlns:svg="http://www.w3.org/2000/svg"
   xmlns="http://www.w3.org/2000/svg"
   viewBox="0 0 1280 1280"
   height="1280"
   width="1280"
   xml:space="preserve"
   version="1.1"
   id="svg2"><metadata
     id="metadata8"><rdf:RDF><cc:Work
         rdf:about=""><dc:format>image/svg+xml</dc:format><dc:type
           rdf:resource="http://purl.org/dc/dcmitype/StillImage" /></cc:Work></rdf:RDF></metadata><defs
     id="defs6"><clipPath
       id="clipPath16"
       clipPathUnits="userSpaceOnUse"><path
         id="path18"
         d="m 0,1024 1024,0 L 1024,0 0,0 0,1024 Z" /></clipPath></defs><g
     transform="matrix(1.25,0,0,-1.25,0,1280)"
     id="g10"><g
       id="g12"><g
         clip-path="url(#clipPath16)"
         id="g14"><g
           transform="translate(887.5879,698.4756)"
           id="g20"><path
             id="path22"
             style="fill:#231f20;fill-opacity:1;fill-rule:nonzero;stroke:none"
             d="m 0,0 -190.579,190.365 28.908,28.866 L 28.822,28.738 0,0 Z m -830.982,-640.359 -0.084,154.76 154.972,-154.973 -154.888,0.213 z M 66.547,257.084 c -64.43,64.303 -176.674,64.176 -240.849,-0.127 l -53.834,-53.876 c -0.084,-0.041 -0.084,0 -0.167,-0.041 -0.088,-0.087 0,-0.128 -0.088,-0.171 L -861.417,-430.07 c -3.305,-3.221 -5.171,-7.633 -5.171,-12.549 l 0,-215.544 c 0,-9.831 8.055,-17.803 17.805,-17.803 l 215.586,-0.168 c 4.916,0 9.325,2.035 12.545,5.21 L 12.629,-37.768 66.547,16.106 c 66.295,66.423 66.295,174.513 0,240.978" /></g></g></g></g></svg>