<?xml version="1.0" encoding="UTF-8" standalone="no"?>
<svg
   xmlns:dc="http://purl.org/dc/elements/1.1/"
   xmlns:cc="http://creativecommons.org/ns#"
   xmlns:rdf="http://www.w3.org/1999/02/22-rdf-syntax-ns#"
   xmlns:svg="http://www.w3.org/2000/svg"
   xmlns="http://www.w3.org/2000/svg"
   viewBox="0 0 1280 1280"
   height="1280"
   width="1280"
   xml:space="preserve"
   version="1.1"
   id="svg2"><metadata
     id="metadata8"><rdf:RDF><cc:Work
         rdf:about=""><dc:format>image/svg+xml</dc:format><dc:type
           rdf:resource="http://purl.org/dc/dcmitype/StillImage" /></cc:Work></rdf:RDF></metadata><defs
     id="defs6"><clipPath
       id="clipPath20"
       clipPathUnits="userSpaceOnUse"><path
         id="path22"
         d="m 0,1024 1024,0 L 1024,0 0,0 0,1024 Z" /></clipPath></defs><g
     transform="matrix(1.25,0,0,-1.25,0,1280)"
     id="g10"><g
       transform="translate(409.0968,493.6887)"
       id="g12"><path
         id="path14"
         style="fill:#231f20;fill-opacity:1;fill-rule:nonzero;stroke:none"
         d="m 0,0 0.394,-0.394 -0.395,-0.395 0.406,0 L 0.404,0 0,0 Z" /></g><g
       id="g16"><g
         clip-path="url(#clipPath20)"
         id="g18"><g
           transform="translate(54.9238,653.103)"
           id="g24"><path
             id="path26"
             style="fill:#ffffff;fill-opacity:1;fill-rule:nonzero;stroke:none"
             d="m 0,0 c 0,186.129 150.888,337.017 337.017,337.017 186.13,0 337.016,-150.888 337.016,-337.017 0,-186.129 -150.886,-337.017 -337.016,-337.017 C 150.888,-337.017 0,-186.129 0,0" /></g><g
           transform="translate(54.9238,653.103)"
           id="g28"><path
             id="path30"
             style="fill:none;stroke:#231f20;stroke-width:51.52999878;stroke-linecap:butt;stroke-linejoin:miter;stroke-miterlimit:10;stroke-dasharray:none;stroke-opacity:1"
             d="m 0,0 c 0,186.129 150.888,337.017 337.017,337.017 186.13,0 337.016,-150.888 337.016,-337.017 0,-186.129 -150.886,-337.017 -337.016,-337.017 C 150.888,-337.017 0,-186.129 0,0 Z" /></g><g
           transform="translate(979.6641,85.8604)"
           id="g32"><path
             id="path34"
             style="fill:#231f20;fill-opacity:1;fill-rule:nonzero;stroke:none"
             d="m 0,0 c 17.506,-17.507 17.506,-45.891 0,-63.398 -17.509,-17.505 -45.893,-17.505 -63.397,0 L -390.15,262.106 c -17.505,17.507 -17.505,45.891 0,63.399 17.508,17.506 45.891,17.506 63.399,0 L 0,0 Z" /></g></g></g></g></svg>