<?xml version="1.0" encoding="UTF-8" standalone="no"?>
<svg
   xmlns:dc="http://purl.org/dc/elements/1.1/"
   xmlns:cc="http://creativecommons.org/ns#"
   xmlns:rdf="http://www.w3.org/1999/02/22-rdf-syntax-ns#"
   xmlns:svg="http://www.w3.org/2000/svg"
   xmlns="http://www.w3.org/2000/svg"
   viewBox="0 0 1280 1280"
   height="1280"
   width="1280"
   xml:space="preserve"
   version="1.1"
   id="svg2"><metadata
     id="metadata8"><rdf:RDF><cc:Work
         rdf:about=""><dc:format>image/svg+xml</dc:format><dc:type
           rdf:resource="http://purl.org/dc/dcmitype/StillImage" /></cc:Work></rdf:RDF></metadata><defs
     id="defs6"><clipPath
       id="clipPath16"
       clipPathUnits="userSpaceOnUse"><path
         id="path18"
         d="m 0,1024 1024,0 L 1024,0 0,0 0,1024 Z" /></clipPath></defs><g
     transform="matrix(1.25,0,0,-1.25,0,1280)"
     id="g10"><g
       id="g12"><g
         clip-path="url(#clipPath16)"
         id="g14"><g
           transform="translate(623.6465,431.7129)"
           id="g20"><path
             id="path22"
             style="fill:#231f20;fill-opacity:1;fill-rule:nonzero;stroke:none"
             d="m 0,0 c 3.047,0 6.119,1.168 8.455,3.5 4.637,4.668 4.637,12.238 0,16.891 l -80.253,80.179 c -4.638,4.667 -12.236,4.667 -16.902,0 l -80.137,-80.179 c -4.668,-4.653 -4.668,-12.223 0,-16.891 4.666,-4.666 12.179,-4.666 16.847,0 l 59.818,59.79 0,-268.094 c 0,-6.574 5.349,-11.952 11.923,-11.952 6.631,0 11.978,5.378 11.978,11.952 l 0,268.094 L -8.451,3.5 C -6.115,1.168 -3.044,0 0,0" /></g><g
           transform="translate(834.3789,647.9058)"
           id="g24"><path
             id="path26"
             style="fill:#231f20;fill-opacity:1;fill-rule:nonzero;stroke:none"
             d="m 0,0 c -5.82,0 -11.668,-0.276 -17.484,-0.825 -15.897,59.428 -50.683,113.1 -98.823,152.106 -25.537,20.692 -54.093,36.817 -84.877,47.926 -31.855,11.497 -65.332,17.326 -99.5,17.326 -57.774,0 -113.668,-16.795 -161.638,-48.569 -43.722,-28.961 -78.684,-68.769 -101.638,-115.595 -15.975,3.739 -32.38,5.631 -48.908,5.631 -117.911,0 -213.839,-95.928 -213.839,-213.839 0,-109.219 82.288,-200.303 189.467,-212.453 l 0,-1.386 317.861,0 0,25.545 -298.735,0 -5.628,0.32 c -99.488,5.661 -177.421,88.229 -177.421,187.974 0,103.826 84.469,188.295 188.295,188.295 17.809,0 35.447,-2.49 52.422,-7.401 l 10.69,-3.092 4.527,10.167 c 20.769,46.65 54.315,86.256 97.013,114.537 43.775,28.996 94.79,44.322 147.532,44.322 31.204,0 61.762,-5.319 90.829,-15.809 28.09,-10.138 54.154,-24.856 77.466,-43.746 46.725,-37.859 79.666,-90.827 92.757,-149.146 l 2.625,-11.697 11.839,1.88 c 8.299,1.317 16.767,1.985 25.168,1.985 87.834,0 159.292,-71.46 159.292,-159.296 0,-87.835 -71.458,-159.293 -159.292,-159.293 -2.982,0 -5.997,0.083 -8.96,0.248 l -13.48,0.748 0,-0.996 -234.939,0 0,-25.545 260.483,0 0,0.026 c 100.491,1.666 181.733,83.931 181.733,184.812 C 184.837,-82.919 101.919,0 0,0" /></g></g></g></g></svg>