<?xml version="1.0" encoding="UTF-8" standalone="no"?>
<svg
   xmlns:dc="http://purl.org/dc/elements/1.1/"
   xmlns:cc="http://creativecommons.org/ns#"
   xmlns:rdf="http://www.w3.org/1999/02/22-rdf-syntax-ns#"
   xmlns:svg="http://www.w3.org/2000/svg"
   xmlns="http://www.w3.org/2000/svg"
   viewBox="0 0 1280 1280"
   height="1280"
   width="1280"
   xml:space="preserve"
   version="1.1"
   id="svg2"><metadata
     id="metadata8"><rdf:RDF><cc:Work
         rdf:about=""><dc:format>image/svg+xml</dc:format><dc:type
           rdf:resource="http://purl.org/dc/dcmitype/StillImage" /></cc:Work></rdf:RDF></metadata><defs
     id="defs6"><clipPath
       id="clipPath16"
       clipPathUnits="userSpaceOnUse"><path
         id="path18"
         d="m 0,1024 1024,0 L 1024,0 0,0 0,1024 Z" /></clipPath></defs><g
     transform="matrix(1.25,0,0,-1.25,0,1280)"
     id="g10"><g
       id="g12"><g
         clip-path="url(#clipPath16)"
         id="g14"><g
           transform="translate(390.1357,596.313)"
           id="g20"><path
             id="path22"
             style="fill:#231f20;fill-opacity:1;fill-rule:nonzero;stroke:none"
             d="m 0,0 c -4.434,-7.737 -1.756,-17.602 5.98,-22.034 l 224.016,-130.99 c 7.736,-4.433 17.601,-1.754 22.034,5.982 4.432,7.737 1.755,17.601 -5.981,22.034 L 22.034,5.981 C 14.297,10.414 4.433,7.735 0,0" /></g><g
           transform="translate(412.6353,464.3057)"
           id="g24"><path
             id="path26"
             style="fill:#231f20;fill-opacity:1;fill-rule:nonzero;stroke:none"
             d="m 0,0 c -1.122,-1.851 -3.088,-2.954 -5.261,-2.954 -1.121,0 -2.184,0.3 -3.16,0.892 L -366.36,212.343 c -2.823,1.777 -3.712,5.509 -1.976,8.371 l 105.372,173.672 c 1.122,1.849 3.089,2.954 5.261,2.954 1.122,0 2.186,-0.3 3.161,-0.892 L 103.397,182.043 c 2.823,-1.776 3.712,-5.51 1.977,-8.371 l -36.478,-61.92 24.892,-14.147 36.054,61.222 c 9.939,16.383 4.696,37.798 -11.687,47.737 l -357.988,214.434 c -5.405,3.247 -11.581,4.961 -17.87,4.961 -12.077,0 -23.468,-6.41 -29.73,-16.728 L -392.805,235.559 c -9.938,-16.382 -4.696,-37.796 11.685,-47.736 L -23.132,-26.61 c 5.406,-3.248 11.582,-4.963 17.871,-4.963 12.079,0 23.471,6.411 29.73,16.728 L 61.499,47.102 36.607,61.249 0,0 Z" /></g><g
           transform="translate(998.2529,391.1426)"
           id="g28"><path
             id="path30"
             style="fill:#231f20;fill-opacity:1;fill-rule:nonzero;stroke:none"
             d="m 0,0 -349.319,211.7 -0.258,0.159 c -5.44,3.301 -11.666,5.045 -18.009,5.045 -12.079,0 -23.468,-6.409 -29.727,-16.727 l -37.94,-62.094 24.891,-14.145 37.517,61.395 c 1.121,1.849 3.087,2.952 5.259,2.952 1.086,0 2.116,-0.28 3.065,-0.835 l 349.27,-211.666 0.259,-0.162 c 2.891,-1.753 3.819,-5.532 2.065,-8.422 L -118.3,-206.474 c -1.123,-1.849 -3.09,-2.954 -5.263,-2.954 -1.084,0 -2.115,0.282 -3.064,0.836 l -349.27,211.666 -0.259,0.159 c -2.892,1.755 -3.817,5.536 -2.064,8.427 l 34.752,62.541 -24.891,14.147 -34.327,-61.842 c -9.91,-16.332 -4.731,-37.668 11.536,-47.649 l 349.323,-211.699 0.256,-0.161 c 5.438,-3.298 11.664,-5.044 18.008,-5.044 12.078,0 23.469,6.408 29.73,16.73 L 11.54,-47.645 C 21.449,-31.313 16.267,-9.979 0,0" /></g></g></g></g></svg>