<svg xmlns="http://www.w3.org/2000/svg"><defs><clipPath id="camera-white-a"><path d="m 0,1024 1024,0 L 1024,0 0,0 0,1024 Z"/></clipPath><clipPath id="camera-a"><path d="m 0,1024 1024,0 L 1024,0 0,0 0,1024 Z"/></clipPath><clipPath id="close-a"><path d="m 0,1024 1024,0 L 1024,0 0,0 0,1024 Z"/></clipPath><clipPath id="edit-blue-a"><path d="m 0,1024 1024,0 L 1024,0 0,0 0,1024 Z"/></clipPath><clipPath id="edit-a"><path d="m 0,1024 1024,0 L 1024,0 0,0 0,1024 Z"/></clipPath><clipPath id="search-dark-a"><path d="m 0,1024 1024,0 L 1024,0 0,0 0,1024 Z"/></clipPath><clipPath id="search-light-a"><path d="m 0,1024 1024,0 L 1024,0 0,0 0,1024 Z"/></clipPath><clipPath id="tick-a"><path d="m 0,1024 1024,0 L 1024,0 0,0 0,1024 Z"/></clipPath><clipPath id="unselect-dark-a"><path d="m 0,1024 1024,0 L 1024,0 0,0 0,1024 Z"/></clipPath><clipPath id="upload-a"><path d="m 0,1024 1024,0 L 1024,0 0,0 0,1024 Z"/></clipPath><clipPath id="url-a"><path d="m 0,1024 1024,0 L 1024,0 0,0 0,1024 Z"/></clipPath></defs><symbol viewBox="0 0 1024 1024" id="avatar_placeholder"><title>avatar_placeholder</title> <path d="M512.002,8.057C233.098,8.057,7,233.682,7,511.996c0,278.33,226.098,503.948,505.002,503.948
    c278.899,0,504.998-225.618,504.998-503.948C1017,233.682,790.901,8.057,512.002,8.057z M517.069,977.108
    c-171.562,0-293.432-104.875-295.168-106.611c27.778-16.159,141.757-38.287,168.439-55.04
    c29.54-18.554,20.047-120.051,20.047-120.051l-20.047-17.503c0,0-4.035-46.479-13.786-62.526
    c-16.686-27.46-40.102-100.032-40.102-100.032s-20.047-14.568-20.047-40.03c0-25.455,20.047-40.007,20.047-40.007
    s-15.663-70.83-15.663-120.051c0-111.904,85.294-160.058,202.167-160.058c116.882,0,181.912,56.654,181.912,160.058
    c0,49.221-7.514,120.051-7.514,120.051s20.047,14.552,20.047,40.007c0,25.462-20.047,40.03-20.047,40.03
    s-20.604,62.713-40.1,100.032c-8.7,16.64-13.788,62.526-13.788,62.526l-20.049,17.503c0,0-9.493,101.497,20.049,120.051
    c26.334,16.535,137.734,38.318,167.316,54.417C810.782,871.833,688.638,977.108,517.069,977.108z"/> </symbol><symbol viewBox="0 0 1024 1024" id="behance"><title>behance</title><path d="M410.829,477.758c0,0,96.303-7.19,96.303-120.172c0-112.942-78.799-168.029-178.657-168.029H144.769h-5.422 H0V820.84h139.347h5.422h183.746c0,0,200.582,6.287,200.582-186.358C529.096,634.481,537.779,477.758,410.829,477.758z M144.769,301.695H304.88h23.595c0,0,44.654,0,44.654,65.714c0,65.656-26.266,75.184-56.049,75.184H144.769V301.695z M319.261,708.664H144.769V539.947h183.746c0,0,66.579-0.905,66.579,86.676C395.093,700.451,345.351,708.113,319.261,708.664zM796.551,350.141c-242.761,0-242.583,242.535-242.583,242.535s-16.68,241.366,242.583,241.366 c0,0,215.984,12.337,215.984-167.932H901.458c0,0,3.635,67.936-101.213,67.936c0,0-111.136,7.426-111.136-109.898h327.179 C1016.288,624.147,1052.062,350.141,796.551,350.141z M687.872,539.947c0,0,13.613-97.315,111.154-97.315 c97.501,0,96.244,97.315,96.244,97.315H687.872zM660.701 226.688H921.183V304.406H660.701z"/></symbol><symbol viewBox="0 0 1280 1280" id="camera-white"><title>camera-white</title><g transform="matrix(1.25 0 0 -1.25 0 1280)"><g><g clip-path="url(#camera-white-a)"><g transform="translate(513.039 613.28)"><path d="m 0,0 c -83.638,0 -151.663,-68.105 -151.663,-151.744 0,-83.557 68.025,-151.541 151.663,-151.541 83.717,0 151.702,67.984 151.702,151.541 C 151.702,-68.105 83.717,0 0,0"/></g><g transform="translate(513.037 264.324)"><path d="m 0,0 c -108.772,0 -197.25,88.393 -197.25,197.206 0,108.857 88.478,197.42 197.25,197.42 108.857,0 197.377,-88.563 197.377,-197.42 C 197.377,88.393 108.857,0 0,0 m 480.94,514.989 -271.077,0 -34.259,98.389 c -3.014,6.028 -9.17,9.934 -15.878,9.934 l -309.366,0 c -6.708,0 -12.907,-3.906 -15.964,-9.934 l -34.174,-98.389 -83.827,0 0,31.989 c 0,9.85 -7.982,17.874 -17.831,17.874 l -119.641,0 c -9.871,0 -17.852,-8.024 -17.852,-17.874 l 0,-31.989 -42.032,0 c -9.85,0 -17.789,-8.024 -17.789,-17.832 l 0,-599.688 c 0,-9.892 7.939,-17.832 17.789,-17.832 l 961.901,0 c 9.85,0 17.831,7.94 17.831,17.832 l 0,599.688 c 0,9.808 -7.981,17.832 -17.831,17.832"/></g></g></g></g></symbol><symbol viewBox="0 0 1280 1280" id="camera"><title>camera</title><g transform="matrix(1.25 0 0 -1.25 0 1280)"><g><g clip-path="url(#camera-a)"><g transform="translate(513.039 613.28)"><path d="m 0,0 c -83.638,0 -151.663,-68.105 -151.663,-151.744 0,-83.557 68.025,-151.541 151.663,-151.541 83.717,0 151.702,67.984 151.702,151.541 C 151.702,-68.105 83.717,0 0,0"/></g><g transform="translate(513.037 264.324)"><path d="m 0,0 c -108.772,0 -197.25,88.393 -197.25,197.206 0,108.857 88.478,197.42 197.25,197.42 108.857,0 197.377,-88.563 197.377,-197.42 C 197.377,88.393 108.857,0 0,0 m 480.94,514.989 -271.077,0 -34.259,98.389 c -3.014,6.028 -9.17,9.934 -15.878,9.934 l -309.366,0 c -6.708,0 -12.907,-3.906 -15.964,-9.934 l -34.174,-98.389 -83.827,0 0,31.989 c 0,9.85 -7.982,17.874 -17.831,17.874 l -119.641,0 c -9.871,0 -17.852,-8.024 -17.852,-17.874 l 0,-31.989 -42.032,0 c -9.85,0 -17.789,-8.024 -17.789,-17.832 l 0,-599.688 c 0,-9.892 7.939,-17.832 17.789,-17.832 l 961.901,0 c 9.85,0 17.831,7.94 17.831,17.832 l 0,599.688 c 0,9.808 -7.981,17.832 -17.831,17.832"/></g></g></g></g></symbol><symbol viewBox="0 0 1024 1024" id="clock"><title>clock</title><circle stroke-width="26.5" stroke-miterlimit="10" cx="515.757" cy="519.09" r="468.478" fill="none"/><path d="M529.857,199.98c0,7.787-6.313,14.101-14.101,14.101l0,0c-7.787,0-14.102-6.313-14.102-14.101v-90.875 c0-7.788,6.314-14.101,14.102-14.101l0,0c7.787,0,14.101,6.313,14.101,14.101V199.98zM529.857,935.342c0,7.787-6.313,14.1-14.101,14.1l0,0c-7.787,0-14.102-6.312-14.102-14.1v-90.875 c0-7.787,6.314-14.101,14.102-14.101l0,0c7.787,0,14.101,6.313,14.101,14.101V935.342zM837.304,534.235c-7.788,0-14.102-6.313-14.102-14.101l0,0c0-7.788,6.313-14.102,14.102-14.102h90.874 c7.788,0,14.102,6.313,14.102,14.102l0,0c0,7.787-6.313,14.101-14.102,14.101H837.304zM116.566,534.235c-7.788,0-14.1-6.313-14.1-14.101l0,0c0-7.788,6.312-14.102,14.1-14.102h90.875 c7.788,0,14.101,6.313,14.101,14.102l0,0c0,7.787-6.313,14.101-14.101,14.101H116.566zM342.698,447.311c-6.317-4.554-7.745-13.368-3.19-19.684l0,0c4.555-6.317,13.367-7.746,19.685-3.191 l166.504,121.617c6.317,4.555,7.745,13.368,3.19,19.685l0,0c-4.555,6.316-13.367,7.747-19.686,3.19L342.698,447.311zM691.229,308.673c4.555-6.318,13.367-7.745,19.684-3.19l0,0c6.317,4.555,7.747,13.367,3.192,19.685 L531.291,565.946c-4.555,6.319-13.368,7.746-19.685,3.192l0,0c-6.317-4.555-7.747-13.369-3.191-19.686L691.229,308.673z"/></symbol><symbol viewBox="0 0 1280 1280" id="close"><title>close</title><g transform="matrix(1.25 0 0 -1.25 0 1280)"><g><g clip-path="url(#close-a)"><g transform="translate(602.387 511.526)"><path d="M 0,0 0.393,0 0.01,0.383 0.393,0.766 0,0.766 396.141,396.907 c 25.166,25.167 25.166,65.936 0,91.047 -25.166,25.167 -65.883,25.167 -91.045,0 L -91.235,91.626 -487.564,487.954 c -25.164,25.167 -65.88,25.167 -91.046,0 -25.167,-25.111 -25.167,-65.88 0,-91.047 l 396.142,-396.141 -0.392,0 0.382,-0.382 -0.383,-0.384 0.394,0 -396.143,-396.141 c -25.167,-25.166 -25.167,-65.934 0,-91.046 25.166,-25.167 65.882,-25.167 91.046,0 l 396.331,396.328 396.329,-396.329 c 25.162,-25.166 65.879,-25.166 91.045,0 25.166,25.111 25.166,65.879 0,91.047 L 0,0 Z"/></g></g></g></g></symbol><symbol viewBox="0 0 1024 1024" id="download"><title>download</title> <g> <path d="M508.865,797.904c7.977,8.028,21.048,8.028,29.074,0l137.85-137.922c8.029-8.002,8.029-21.024,0-29.056
        c-8.026-8.026-20.95-8.026-28.98,0L543.91,733.777v-633.48c0-11.308-9.2-20.56-20.51-20.56c-11.405,0-20.603,9.252-20.603,20.56
        v633.48L399.896,630.927c-4.02-4.012-9.3-6.02-14.538-6.02c-5.242,0-10.528,2.008-14.544,6.02c-7.977,8.031-7.977,21.053,0,29.056
        L508.865,797.904z"/> <path d="M989.324,840.486H35.084c-11.308,0-20.56,9.2-20.56,20.51c0,11.406,9.252,20.603,20.56,20.603h954.24
        c11.308,0,20.56-9.2,20.56-20.51C1009.884,849.684,1000.632,840.486,989.324,840.486z"/> </g> </symbol><symbol viewBox="0 0 1024 1024" id="dribbble"><title>dribbble</title><path d="M511.15,1021.729c-281.221,0-509.996-228.832-509.996-510.028C1.154,230.503,229.929,1.721,511.15,1.721 c281.236,0,510.004,228.783,510.004,509.979C1021.154,792.896,792.387,1021.729,511.15,1021.729z M941.257,581.534 c-14.875-4.738-134.818-40.481-271.327-18.63c56.982,156.557,80.171,284.074,84.604,310.615 C852.27,807.432,921.838,702.75,941.257,581.534z M681.323,913.371c-6.511-38.225-31.779-171.414-92.95-330.322l-2.869,0.967 c-245.695,85.603-333.892,256.018-341.748,272.035c73.838,57.611,166.684,91.968,267.395,91.968 C571.468,948.019,629.015,935.69,681.323,913.371z M187.507,803.662c9.87-16.89,129.427-214.845,354.101-287.458 c5.656-1.885,11.409-3.585,17.146-5.205c-10.926-24.752-22.852-49.529-35.308-73.927c-217.527,65.112-428.632,62.396-447.688,61.985 c-0.121,4.456-0.25,8.847-0.25,13.328C75.508,624.271,117.915,726.407,187.507,803.662z M84.718,423.157 c19.483,0.266,198.962,1.048,402.711-53.058c-72.147-128.331-149.998-236.204-161.511-251.932 C204.073,175.616,112.967,287.977,84.718,423.157z M409.054,88.877c12.054,16.091,91.171,123.868,162.526,254.986 c154.929-58.021,220.517-146.186,228.349-157.346c-76.9-68.238-178.086-109.766-288.778-109.766 C476.003,76.751,441.824,80.941,409.054,88.877z M848.37,236.917c-9.201,12.401-82.218,105.997-243.271,171.729 c10.12,20.788,19.838,41.866,28.927,63.114c3.175,7.518,6.3,15.01,9.362,22.504c144.938-18.258,288.972,10.982,303.347,13.996 C945.753,405.431,909.026,311.021,848.37,236.917z"/></symbol><symbol viewBox="0 0 1280 1280" id="edit-blue"><title>edit-blue</title><g transform="matrix(1.25 0 0 -1.25 0 1280)"><g><g clip-path="url(#edit-blue-a)"><g transform="translate(887.588 698.476)"><path d="m 0,0 -190.579,190.365 28.908,28.866 L 28.822,28.738 0,0 Z m -830.982,-640.359 -0.084,154.76 154.972,-154.973 -154.888,0.213 z M 66.547,257.084 c -64.43,64.303 -176.674,64.176 -240.849,-0.127 l -53.834,-53.876 c -0.084,-0.041 -0.084,0 -0.167,-0.041 -0.088,-0.087 0,-0.128 -0.088,-0.171 L -861.417,-430.07 c -3.305,-3.221 -5.171,-7.633 -5.171,-12.549 l 0,-215.544 c 0,-9.831 8.055,-17.803 17.805,-17.803 l 215.586,-0.168 c 4.916,0 9.325,2.035 12.545,5.21 L 12.629,-37.768 66.547,16.106 c 66.295,66.423 66.295,174.513 0,240.978"/></g></g></g></g></symbol><symbol viewBox="0 0 1280 1280" id="edit"><title>edit</title><g transform="matrix(1.25 0 0 -1.25 0 1280)"><g><g clip-path="url(#edit-a)"><g transform="translate(887.588 698.476)"><path d="m 0,0 -190.579,190.365 28.908,28.866 L 28.822,28.738 0,0 Z m -830.982,-640.359 -0.084,154.76 154.972,-154.973 -154.888,0.213 z M 66.547,257.084 c -64.43,64.303 -176.674,64.176 -240.849,-0.127 l -53.834,-53.876 c -0.084,-0.041 -0.084,0 -0.167,-0.041 -0.088,-0.087 0,-0.128 -0.088,-0.171 L -861.417,-430.07 c -3.305,-3.221 -5.171,-7.633 -5.171,-12.549 l 0,-215.544 c 0,-9.831 8.055,-17.803 17.805,-17.803 l 215.586,-0.168 c 4.916,0 9.325,2.035 12.545,5.21 L 12.629,-37.768 66.547,16.106 c 66.295,66.423 66.295,174.513 0,240.978"/></g></g></g></g></symbol><symbol viewBox="0 0 1024 1024" id="elance"><title>elance</title><path d="M148.954 1.047H883.93V127.48H277.523v310.71h604.3v115.697H273.23V896.76h608.59l2.11 124.3H146.82z"/></symbol><symbol viewBox="0 0 50 50" id="exclamation-circle"><title>exclamation-circle</title><path d="M25 9.75C16.59 9.75 9.75 16.59 9.75 25S16.59 40.25 25 40.25 40.25 33.41 40.25 25 33.41 9.75 25 9.75zM25 37.25c-6.75 0-12.25-5.49-12.25-12.25S18.25 12.75 25 12.75 37.25 18.25 37.25 25 31.76 37.25 25 37.25zM23 15.92h4V28.75h-4V15.92zM23 30.92h4v3.17h-4V30.92z"/></symbol><symbol viewBox="0 0 1024 1024" id="facebook"><title>facebook</title><path d="M747.005 555.747L770.39 374.42H590.827V258.65c0-52.5 14.638-88.278 89.91-88.278l95.943-.054V8.148C760.116 5.938 703.168 1 636.795 1c-138.455 0-233.18 84.52-233.18 239.71v133.71h-156.59v181.327h156.592v465.245H590.83V555.747h156.176z"/></symbol><symbol viewBox="0 0 1024 1024" id="file-default"><title>file-default</title><g><path d="M694.766,242.974h198.467L652.888,7.181v202.108C652.888,209.289,652.888,242.974,694.766,242.974zM639.538,216.465V6H190.506c-16.146,0-29.232,13.016-29.232,29.068v951.87c0,16.053,13.087,29.062,29.232,29.062h672.386 c16.145,0,29.239-13.009,29.239-29.062V255.933H688.606C639.538,255.933,639.538,216.465,639.538,216.465z M419.144,479.179 h-66.915v52.006h62.705v23.102h-62.705v68.28h-26.97V456.19h93.885V479.179z M471.833,622.566h-27.198V456.19h27.198V622.566z M608.74,622.566h-97.632V456.19h27.19v143.047h70.441V622.566z M726.872,479.179h-66.915v45.293h62.704v22.76h-62.704v52.233 h66.915v23.102H632.76V456.19h94.112V479.179z"/></g></symbol><symbol viewBox="0 0 1024 1024" id="file-doc"><title>file-doc</title><g><path d="M695.764,243.15H894.23L653.885,7.357v202.108C653.885,209.466,653.885,243.15,695.764,243.15zM640.535,216.642V6.177H191.503c-16.146,0-29.232,13.016-29.232,29.068v951.87c0,16.053,13.087,29.062,29.232,29.062 h672.385c16.146,0,29.24-13.009,29.24-29.062V256.109H689.604C640.535,256.109,640.535,216.642,640.535,216.642z M432.659,349.667 h189.362v36.416H432.659V349.667z M483.641,830.356H294.278V793.94h189.362V830.356z M760.401,742.958H294.278v-36.416h466.123 V742.958z M760.401,655.561H294.278v-36.416h466.123V655.561z M760.401,560.879H294.278v-36.416h466.123V560.879z M760.401,473.48 H294.278v-36.416h466.123V473.48z"/></g></symbol><symbol viewBox="0 0 1024 1024" id="file-excel"><title>file-excel</title><g><path d="M694.766,242.973h198.467L652.887,7.181v202.108C652.887,209.289,652.887,242.973,694.766,242.973zM639.538,216.466V6H190.505c-16.145,0-29.231,13.016-29.231,29.068v951.87c0,16.053,13.087,29.062,29.231,29.062h672.387 c16.144,0,29.238-13.009,29.238-29.062V255.932H688.606C639.538,255.932,639.538,216.466,639.538,216.466z M419.933,824.718 H296.012v-49.568h123.921V824.718z M419.933,728.776H296.012v-49.574h123.921V728.776z M419.933,632.826H296.012V583.26h123.921 V632.826z M419.933,536.883H296.012v-49.567h123.921V536.883z M419.933,440.936H296.012v-49.568h123.921V440.936z M587.126,824.718 H463.198v-49.568h123.928V824.718z M587.126,728.773H463.198v-49.571h123.928V728.773z M587.126,632.826H463.198V583.26h123.928 V632.826z M587.126,536.883H463.198v-49.571h123.928V536.883z M587.126,440.936H463.198v-49.568h123.928V440.936z M751.21,824.718 H627.289v-49.568H751.21V824.718z M751.21,728.773H627.289v-49.571H751.21V728.773z M751.21,632.826H627.289V583.26H751.21V632.826 z M751.21,536.883H627.289v-49.571H751.21V536.883z M751.21,440.936H627.289v-49.568H751.21V440.936z"/></g></symbol><symbol viewBox="0 0 1024 1024" id="file-pdf"><title>file-pdf</title><g><path d="M695.763,243.15H894.23L653.885,7.357v202.108C653.885,209.466,653.885,243.15,695.763,243.15zM498.015,329.837c-0.384,0.057-0.918,0.178-1.643,0.434c-1.671,0.569-3.016,1.5-4.154,4.246 c-4.381,10.483-0.917,30.405,5.783,51.822C503.555,349.439,500.61,333.771,498.015,329.837zM349.346,717.83c-0.174,1.585-0.629,5.811,7.344,12.07c2.54-0.825,17.361-7.746,44.965-59.909 C365.247,690.93,350.406,708.128,349.346,717.83zM461.158,609.655c35.583-14.131,74.304-26.465,110.649-35.221c-22.987-27.326-45.968-61.466-65.108-96.651 C494.516,520.914,478.434,567.486,461.158,609.655zM631.196,592.899c13.868,10.924,26.145,16.899,35.228,16.899c3.99,0,9.24-0.961,14.488-8.486 c2.539-3.648,3.528-5.98,3.911-7.225c-2.091-1.139-8.222-3.485-23.37-3.485C652.859,590.603,642.641,591.384,631.196,592.899zM640.534,216.642V6.177H191.506c-16.145,0-29.235,13.016-29.235,29.068v951.869c0,16.054,13.09,29.062,29.235,29.062 h672.382c16.146,0,29.238-13.009,29.238-29.062V256.109H689.604C640.534,256.109,640.534,216.642,640.534,216.642z M710.898,580.716c5.44,10.846,3.214,23.521-6.658,37.66c-9.487,13.593-22.56,20.768-37.816,20.768 c-20.726,0-44.83-13.405-71.744-39.837c-48.336,10.328-104.773,28.778-150.378,49.197c-14.247,30.933-27.902,55.84-40.591,74.106 c-17.44,25.057-32.49,36.735-47.39,36.735c-5.929,0-11.633-1.971-16.477-5.69c-17.743-13.606-20.121-28.762-18.987-39.097 c3.094-28.373,37.383-58.088,101.943-88.352c25.619-57.455,49.986-128.266,64.517-187.414c-16.992-37.874-33.506-87-21.465-115.819 c4.218-10.092,11.629-17.198,21.458-20.548c3.876-1.33,7.682-2.006,11.281-2.006c8.591,0,16.273,3.841,21.614,10.812 c5.028,6.558,20.164,26.302-2.609,124.433c22.958,48.536,55.484,97.975,86.658,131.837c22.333-4.146,41.551-6.245,57.199-6.245 C688.139,561.256,704.298,567.628,710.898,580.716z"/></g></symbol><symbol viewBox="0 0 1024 1024" id="file-ppt"><title>file-ppt</title><g><path d="M694.76,242.973h198.467L652.885,7.182v202.109C652.885,209.291,652.885,242.973,694.76,242.973zM639.535,216.464V6H190.502c-16.143,0-29.229,13.018-29.229,29.067v951.87c0,16.055,13.086,29.062,29.229,29.062h672.383 c16.152,0,29.238-13.008,29.238-29.062V255.932H688.598C639.535,255.932,639.535,216.464,639.535,216.464z M531.576,710.004 c-84.844,0-153.633-68.32-153.633-152.598c0-84.385,68.799-154.678,153.643-154.121c2.471,0.02,4.15,0.713,6.592,0.83v152.949 h145.664C683.842,641.332,616.42,710.004,531.576,710.004z M567.309,527.924V374.984c84.844,0,152.949,68.32,152.949,152.598 L567.309,527.924z"/></g></symbol><symbol viewBox="0 0 1024 1024" id="file-rtf"><title>file-rtf</title><g><path d="M694.76,242.973h198.467L652.885,7.182v202.109C652.885,209.291,652.885,242.973,694.76,242.973zM639.535,216.464V6H190.502c-16.143,0-29.229,13.018-29.229,29.067v951.87c0,16.055,13.086,29.062,29.229,29.062h672.383 c16.143,0,29.248-13.008,29.248-29.062V255.932H688.607C639.535,255.932,639.535,216.464,639.535,216.464z M699.359,498.227 l-16.006,2.373c-4.717-63.213-36.182-94.829-94.365-94.829c-19.678,0-29.492,6.729-29.492,20.156V699.14 c0,36.353,21.328,54.521,64.004,54.521v17.783H437.406v-17.783c42.266,0,63.418-18.169,63.418-54.521V425.927 c0-14.614-9.688-21.934-29.043-21.934c-26.084,0-47.217,8.398-63.418,25.19c-16.211,16.802-28.262,42.178-36.152,76.152 l-18.369-4.736l16.006-126.235c9.082,1.187,17.676,2.173,25.771,2.964c8.096,0.796,15.908,1.187,23.418,1.187h228.164 c8.301,0,16.797-0.391,25.488-1.187c8.691-0.791,17.568-1.777,26.67-2.964V498.227z"/></g></symbol><symbol viewBox="0 0 1024 1024" id="folder"><title>folder</title><path stroke-width="25.369" stroke-miterlimit="10" d="M959.057 240.762h-474.41v-60.887c0-16.814-13.63-30.444-30.442-30.444H58.44c-16.813 0-30.443 13.63-30.443 30.45V875c0 16.81 13.63 30.443 30.443 30.443h900.616c16.812 0 30.444-13.633 30.444-30.444V271.2c0-16.814-13.63-30.444-30.443-30.444z" fill="none"/></symbol><symbol viewBox="0 0 1024 1024" id="freelancer"><title>freelancer</title><path d="M419.77 261.5c-77.375-30.163-155.064-59.548-232.656-89.102h-1.392c12.096 26.093 23.63 52.452 35.456 78.666 66.18 3.635 132.385 6.95 198.592 10.437zm352.266-75.665c-62.4-.048-124.803-.024-187.206-.024 21.195 28.34 42.456 56.65 63.696 84.96 124.364-28.46 248.824-56.43 373.014-85.57-83.175.3-166.352-.63-249.504.64zm-200.373-.195c-35.82 25.628-71.325 51.72-106.707 77.91 56.938 3.293 113.95 5.535 170.937 8.39-21.043-29.02-43.134-57.282-64.23-86.3zM440.52 272.962c-146.308-7.705-292.643-15.387-438.977-22.872v.584C97.157 354.58 193.16 458.117 289.163 561.656 339.69 465.458 390.19 369.258 440.52 272.962zM295.993 569.387c48.28 51.965 96.37 104.1 144.48 156.21 50.794-50.82 102.27-100.978 153.21-151.628 3.366-5.15 3.05-11.73 4.342-17.56 15.266-91.32 30.85-182.6 46.135-273.92-64.446-2.858-128.872-6.2-193.322-8.95-51.284 98.78-103.442 197.1-154.845 295.84zm-61.597 357.705c10.387-7.413 18.36-17.46 27.896-25.853 56.646-56.36 113.876-112.1 170.475-168.53-40.138-43.16-79.934-86.64-120.07-129.806-25.923 108.1-52.94 215.953-78.3 324.177z"/></symbol><symbol viewBox="0 0 1024 1024" id="github"><title>github</title><path d="M511.23 9c-281.66 0-510 228.308-510 510.062 0 225.23 146.08 416.37 348.784 483.873 25.524 4.64 34.832-11.15 34.832-24.62 0-12.103-.397-44.187-.714-86.755-141.855 30.814-171.763-68.346-171.763-68.346-23.21-58.912-56.66-74.54-56.66-74.54-46.29-31.704 3.54-31.038 3.54-31.038 51.23 3.604 78.15 52.544 78.15 52.544 45.44 77.956 119.35 55.368 148.43 42.345 4.59-32.99 17.752-55.37 32.32-68.14-113.267-12.834-232.297-56.703-232.297-252.1 0-55.593 19.9-101.178 52.446-136.79-5.21-12.936-22.698-64.763 5.05-135.007 0 0 42.76-13.7 140.235 52.32 40.677-11.34 84.357-17.012 127.67-17.202 43.33.19 86.98 5.86 127.655 17.2 97.43-66.018 140.19-52.318 140.19-52.318 27.78 70.244 10.293 122.072 5.035 135.008 32.62 35.61 52.43 81.196 52.43 136.788 0 195.97-119.3 239.077-232.9 251.722 18.28 15.738 34.64 46.79 34.64 94.393 0 68.18-.62 123.17-.62 139.91 0 13.623 9.23 29.443 35.088 24.46 202.45-67.51 348.45-258.55 348.45-483.718C1021.233 237.31 792.955 9 511.233 9"/></symbol><symbol viewBox="0 0 1024 1024" id="import"><title>import</title><path d="M531.904 627.239c0 4.715 1.807 9.47 5.415 13.083 7.225 7.176 18.938 7.176 26.137 0l124.066-124.181c7.221-7.176 7.221-18.934 0-26.154L563.456 365.987c-7.198-7.223-18.912-7.223-26.137 0 -7.219 7.22-7.219 18.845 0 26.068l92.518 92.561H40c-10.172 0-18.494 8.276-18.494 18.449 0 10.26 8.322 18.534 18.494 18.534h589.837l-92.518 92.563C533.711 617.777 531.904 622.528 531.904 627.239"/><rect fill="none" width="1024" height="1024"/><path d="M980.566 11.614H364.099c-14.888 0-27 12.112-27 27v394.358h30V41.614h610.468v938.952H367.099V574.463h-30v409.104c0 14.888 12.112 27 27 27h616.468c14.888 0 27-12.112 27-27V38.614C1007.566 23.727 995.454 11.614 980.566 11.614z"/></symbol><symbol viewBox="0 0 1024 1024" id="linkedIn"><title>linkedIn</title><path d="M17.738 340.24h211.166v678.397H17.738zM123.396 2.998C55.632 2.998 1 57.814 1 125.222 1 192.682 55.632 247.5 123.396 247.5c67.516 0 122.268-54.817 122.268-122.278 0-67.408-54.752-122.224-122.268-122.224zm642.647 320.375c-102.64 0-171.52 56.202-199.646 109.578h-2.858v-92.7H361.29v678.4H572V683c0-88.444 16.74-174.14 126.523-174.14 108.137 0 109.696 101.208 109.696 179.95v329.826H1019V646.53c0-182.7-39.497-323.157-252.957-323.157z"/></symbol><symbol viewBox="0 0 1024 1024" id="lock"><title>lock</title><path stroke-width="37.956" stroke-miterlimit="10" d="M927.673 907.508c0 40.312-32.68 72.992-72.992 72.992H203.59c-40.313 0-72.993-32.68-72.993-72.992V425.753c0-40.313 32.68-72.993 72.993-72.993h651.1c40.31 0 72.99 32.68 72.99 72.993v481.755z"/><path d="M598.205 598.478c0-38.15-30.925-69.075-69.074-69.075-38.14 0-69.07 30.926-69.07 69.075 0 21.938 10.24 41.474 26.19 54.126l-26.87 137.438c0 11.74 9.52 21.254 21.258 21.254h95.343c11.738 0 21.253-9.515 21.253-21.254l-24.343-138.12c15.453-12.668 25.32-31.9 25.32-53.444z"/><path stroke-width="36.074" stroke-miterlimit="10" d="M823.275 351.3V172.25c0-76.63-62.12-138.748-138.747-138.748H373.734c-76.627 0-138.747 62.12-138.747 138.748V351.3h588.288z"/></symbol><symbol viewBox="0 0 1024 1024" id="odesk"><title>odesk</title><path d="M844.681,344.175c0,91.147,0,182.294,0,273.425c14.803-0.016,29.608,0,44.411,0 c-0.017-91.131-0.017-182.278,0-273.409C874.289,344.142,859.483,344.175,844.681,344.175zM159.999,359.576c-19.401-12.679-43.433-17.658-66.335-14.587c-31.633,3.617-61.025,23.085-76.177,51.149 C3.23,422.162,1.073,454.656,12.441,482.14c10.836,26.588,33.392,48.146,60.51,57.64c41.507,15.251,91.562-1.692,115.942-38.405 c15.999-22.82,21.061-52.494,14.787-79.512C197.971,396.469,181.973,373.551,159.999,359.576z M143.601,492.463 c-22.239,18.421-57.937,17.493-78.616-2.938c-22.471-20.479-25.642-58.353-6.39-82.003c9.062-11.584,22.306-19.833,36.712-22.769 c24.512-4.947,51.067,8.148,62.634,30.205C171.948,439.87,166.338,474.572,143.601,492.463zM343.105,349.303c-37.557-7.651-76.093-4.431-114.149-5.128c0,91.147,0,182.278,0,273.425 c23.235-0.132,46.47,0.347,69.705-0.382c23.417-0.282,47.3-2.706,69.174-11.585c49.208-19.352,79.579-72.408,79.38-124.174 c-0.465-34.719-13.078-69.538-36.429-95.445C393.276,366.431,368.632,354.415,343.105,349.303z M394.804,516.18 c-8.448,21.242-25.426,39.217-46.702,47.845c-23.02,9.776-48.562,9.196-73.091,9.181c0-61.688,0-123.378,0-185.066 c23.186,0.315,47.067-0.1,69.174,7.949c17.857,6.208,33.076,19.021,42.951,35.052C402.67,456.216,405.874,488.745,394.804,516.18zM799.937,514.619c-20.745-14.024-46.071-17.774-68.758-27.467c-6.406-3.004-13.543-6.457-16.681-13.194 c-2.572-6.705-0.381-14.97,5.278-19.451c7.038-5.643,16.515-6.938,25.275-6.539c18.655,0.83,36.28,8.182,52.098,17.675 c7.767-10.572,15.615-21.061,23.301-31.682c-24.729-15.8-54.021-25.774-83.579-24.479c-19.035,1.078-38.587,7.684-51.863,21.874 c-15.036,15.318-19.584,39.101-13.609,59.398c4.199,14.024,15.649,24.579,28.33,31.135c21.756,11.799,47.366,13.758,69.09,25.54 c7.767,3.802,12.929,12.813,9.908,21.377c-3.171,11.586-16.265,15.884-27.036,16.299c-26.089,1.127-50.933-10.356-71.513-25.543 c-7.567,10.855-15.086,21.724-22.804,32.446c26.736,20.679,60.527,32.795,94.483,31.684c19.435-0.75,39.747-6.107,54.12-19.884 c15.335-14.454,20.646-37.274,16.795-57.572C820.233,532.943,811.023,521.922,799.937,514.619zM1013.116,413.896c-17.309-0.033-34.636-0.033-51.945,0c-23.253,34.188-46.703,68.228-69.888,102.467 c24.812,33.74,49.605,67.497,74.418,101.237c19.816-0.051,39.631,0.081,59.464-0.068c-28.429-34.752-57.108-69.289-85.636-103.939 C964.058,480.364,988.67,447.188,1013.116,413.896zM593.743,415.788c-29.475-9.758-63.663-6.954-89.818,10.339c-23.583,15.269-39.234,41.16-43.88,68.643 c-4.233,25.973-1.179,53.855,12.131,76.892c12.215,21.641,33.375,37.672,57.158,44.576c20.612,5.926,43.249,7.203,63.681-0.117 c27.135-9.078,50.204-30.485,59.398-57.821c-14.938,0.166-29.874-0.35-44.795-0.463c-6.041,10.538-15.434,19.518-27.384,22.735 c-20.131,5.479-43.963,0.532-58.171-15.352c-8.612-9.276-12.629-21.691-14.969-33.889c49.805-0.102,99.594,0.049,149.4-0.085 c1.56-25.358-2.39-51.63-14.705-74.118C631.566,438.11,614.374,422.625,593.743,415.788z M507.261,498.902 c2.638-13.858,7.85-27.915,18.472-37.674c17.725-16.978,49.058-16.778,66.236,0.914c9.758,9.774,14.257,23.384,16.214,36.761 C574.542,498.952,540.901,498.936,507.261,498.902zM157.277,573.121c-24.812-15.9-57.075-19.336-84.674-9.045c-25.11,8.996-45.822,28.928-56.194,53.455 c59.596,0.149,119.178,0.018,178.758,0.068C187.266,599.461,174.155,583.578,157.277,573.121z"/></symbol><symbol viewBox="0 0 64 64" id="play"><title>play</title> <path d="M32 5c14.89 0 27 12.11 27 27S46.89 59 32 59 5 46.89 5 32 17.11 5 32 5M32 2C15.43 2 2 15.43 2 32c0 16.57 13.43 30 30 30s30-13.43 30-30C62 15.43 48.57 2 32 2L32 2z"/> <path d="M43.99 28.75L28.01 18.23C25.26 16.42 23 17.64 23 20.94V43.06c0 3.3 2.26 4.52 5.02 2.71l15.96-10.44C46.74 33.52 46.74 30.56 43.99 28.75zM41.86 33.12l-14.18 9.28C26.75 43.01 26 42.6 26 41.5V22.49c0-1.1 0.75-1.5 1.67-0.9l14.19 9.34C42.78 31.53 42.78 32.52 41.86 33.12z"/> </symbol><symbol viewBox="0 0 1024 1024" id="plus"><title>plus</title><polygon points="1018,473.451 548.549,473.451 548.549,4 475.451,4 475.451,473.451 6,473.451 6,546.549   475.451,546.549 475.451,1016 548.549,1016 548.549,546.549 1018,546.549 "/></symbol><symbol viewBox="0 0 1024 1024" id="pph"><title>pph</title><path d="M511.686 1.976C230.106 1.976 1.8 230.283 1.8 511.862c0 281.812 228.308 510.342 509.886 510.342 281.81 0 510.113-228.53 510.113-510.342 0-281.58-228.31-509.886-510.12-509.886zm0 929.602c-231.536 0-419.254-187.952-419.254-419.716 0-231.537 187.72-419.256 419.254-419.256 231.767 0 419.488 187.72 419.488 419.256 0 231.763-187.722 419.716-419.488 419.716zM292.576 289.73c-52.902 0-95.78 42.88-95.78 95.81 0 52.875 42.878 95.753 95.78 95.753s95.797-42.878 95.797-95.753c0-52.93-42.894-95.81-95.797-95.81zm430.832 0c-52.887 0-95.78 42.88-95.78 95.81 0 52.875 42.894 95.753 95.78 95.753 52.903 0 95.783-42.878 95.783-95.753 0-52.93-42.87-95.81-95.78-95.81z"/></symbol><symbol viewBox="0 0 1280 1280" id="search-dark"><title>search-dark</title><g transform="matrix(1.25 0 0 -1.25 0 1280)"><g transform="translate(409.097 493.689)"><path d="m 0,0 0.394,-0.394 -0.395,-0.395 0.406,0 L 0.404,0 0,0 Z" fill="#231f20"/></g><g><g clip-path="url(#search-dark-a)"><g transform="translate(54.924 653.103)"><path d="m 0,0 c 0,186.129 150.888,337.017 337.017,337.017 186.13,0 337.016,-150.888 337.016,-337.017 0,-186.129 -150.886,-337.017 -337.016,-337.017 C 150.888,-337.017 0,-186.129 0,0" fill="#fff"/></g><g transform="translate(54.924 653.103)"><path d="m 0,0 c 0,186.129 150.888,337.017 337.017,337.017 186.13,0 337.016,-150.888 337.016,-337.017 0,-186.129 -150.886,-337.017 -337.016,-337.017 C 150.888,-337.017 0,-186.129 0,0 Z" stroke="#231f20" stroke-width="51.53" stroke-miterlimit="10" fill="none"/></g><g transform="translate(979.664 85.86)"><path d="m 0,0 c 17.506,-17.507 17.506,-45.891 0,-63.398 -17.509,-17.505 -45.893,-17.505 -63.397,0 L -390.15,262.106 c -17.505,17.507 -17.505,45.891 0,63.399 17.508,17.506 45.891,17.506 63.399,0 L 0,0 Z" fill="#231f20"/></g></g></g></g></symbol><symbol viewBox="0 0 1280 1280" id="search-light"><title>search-light</title><g transform="matrix(1.25 0 0 -1.25 0 1280)"><g transform="translate(409.097 493.689)"><path d="m 0,0 0.394,-0.394 -0.395,-0.395 0.406,0 L 0.404,0 0,0 Z" fill="black"/></g><g><g clip-path="url(#search-light-a)"><g transform="translate(54.924 653.103)"><path d="m 0,0 c 0,186.129 150.888,337.017 337.017,337.017 186.13,0 337.016,-150.888 337.016,-337.017 0,-186.129 -150.886,-337.017 -337.016,-337.017 C 150.888,-337.017 0,-186.129 0,0" fill="black"/></g><g transform="translate(54.924 653.103)"><path d="m 0,0 c 0,186.129 150.888,337.017 337.017,337.017 186.13,0 337.016,-150.888 337.016,-337.017 0,-186.129 -150.886,-337.017 -337.016,-337.017 C 150.888,-337.017 0,-186.129 0,0 Z" stroke="white" stroke-width="51.53" stroke-miterlimit="10" fill="none"/></g><g transform="translate(979.664 85.86)"><path d="m 0,0 c 17.506,-17.507 17.506,-45.891 0,-63.398 -17.509,-17.505 -45.893,-17.505 -63.397,0 L -390.15,262.106 c -17.505,17.507 -17.505,45.891 0,63.399 17.508,17.506 45.891,17.506 63.399,0 L 0,0 Z" fill="white"/></g></g></g></g></symbol><symbol viewBox="0 0 1024 1024" id="system"><title>system</title> <g> <path d="M526.662,357.268h-80.408v277.35h80.408c85.652,0,141.588-57.684,141.588-137.509v-1.166
        C668.25,416.118,612.314,357.268,526.662,357.268z"/> <path d="M511.002,4C232.098,4,6,229.625,6,507.939c0,278.33,226.098,503.948,505.002,503.948
        c278.899,0,504.998-225.618,504.998-503.948C1016,229.625,789.901,4,511.002,4z M743.415,495.943
        c0,114.786-88.565,203.934-216.752,203.934H374.586V292.01h152.076c128.187,0,216.752,87.982,216.752,202.768V495.943z"/> </g> </symbol><symbol viewBox="0 0 1280 1280" id="tick"><title>tick</title><g transform="matrix(1.25 0 0 -1.25 0 1280)"><g><g clip-path="url(#tick-a)"><g transform="translate(1004.155 834.551)"><path d="m 0,0 c -16.46,16.46 -43.09,16.46 -59.548,0 l -563.616,-563.614 -300.296,297.745 c -16.46,16.46 -43.126,16.46 -59.55,0 -16.46,-16.424 -16.46,-43.09 0,-59.548 l 330.199,-327.395 c 16.423,-16.459 43.124,-16.459 59.548,0 L 0,-59.548 C 16.46,-43.088 16.46,-16.424 0,0"/></g></g></g></g></symbol><symbol viewBox="0 0 56.693 56.693" id="twitter"><title>twitter</title><path d="M52.837,15.065c-1.811,0.805-3.76,1.348-5.805,1.591c2.088-1.25,3.689-3.23,4.444-5.592c-1.953,1.159-4.115,2-6.418,2.454 c-1.843-1.964-4.47-3.192-7.377-3.192c-5.581,0-10.106,4.525-10.106,10.107c0,0.791,0.089,1.562,0.262,2.303 c-8.4-0.422-15.848-4.445-20.833-10.56c-0.87,1.492-1.368,3.228-1.368,5.082c0,3.506,1.784,6.6,4.496,8.412 c-1.656-0.053-3.215-0.508-4.578-1.265c-0.001,0.042-0.001,0.085-0.001,0.128c0,4.896,3.484,8.98,8.108,9.91 c-0.848,0.23-1.741,0.354-2.663,0.354c-0.652,0-1.285-0.063-1.902-0.182c1.287,4.015,5.019,6.938,9.441,7.019 c-3.459,2.711-7.816,4.327-12.552,4.327c-0.815,0-1.62-0.048-2.411-0.142c4.474,2.869,9.786,4.541,15.493,4.541 c18.591,0,28.756-15.4,28.756-28.756c0-0.438-0.009-0.875-0.028-1.309C49.769,18.873,51.483,17.092,52.837,15.065z"/></symbol><symbol viewBox="0 0 1280 1280" id="unselect-dark"><title>unselect-dark</title><g transform="matrix(1.25 0 0 -1.25 0 1280)"><g transform="translate(403.097 494.689)"><path d="m 0,0 0.394,-0.393 -0.396,-0.396 0.406,0 L 0.403,0 0,0 Z" fill="#231f20"/></g><g><g clip-path="url(#unselect-dark-a)"><g transform="translate(33.924 516.102)"><path d="M 0,0 C 0,264.001 214.016,478.018 478.018,478.018 742.021,478.018 956.034,264.001 956.034,0 956.034,-264.002 742.021,-478.018 478.018,-478.018 214.016,-478.018 0,-264.002 0,0" fill="#fff"/></g><g transform="translate(511.941 968.962)"><path d="m 0,0 c -61.146,0 -120.451,-11.97 -176.266,-35.578 -53.923,-22.808 -102.356,-55.464 -143.954,-97.062 -41.598,-41.598 -74.255,-90.031 -97.062,-143.955 -23.608,-55.814 -35.577,-115.118 -35.577,-176.265 0,-61.146 11.969,-120.451 35.577,-176.265 22.807,-53.924 55.464,-102.357 97.062,-143.955 41.598,-41.598 90.031,-74.254 143.954,-97.062 55.815,-23.608 115.12,-35.577 176.266,-35.577 61.146,0 120.451,11.969 176.266,35.577 53.923,22.808 102.356,55.464 143.954,97.061 41.597,41.599 74.254,90.032 97.061,143.956 23.608,55.814 35.577,115.119 35.577,176.265 0,61.147 -11.969,120.451 -35.577,176.266 -22.807,53.923 -55.464,102.356 -97.061,143.954 -41.598,41.598 -90.031,74.254 -143.954,97.062 C 120.451,-11.97 61.146,0 0,0 m 0,-956.036 c -67.917,0 -133.816,13.308 -195.866,39.553 -59.921,25.344 -113.73,61.622 -159.933,107.824 -46.202,46.203 -82.48,100.012 -107.824,159.933 -26.245,62.05 -39.553,127.949 -39.553,195.866 0,67.917 13.308,133.816 39.553,195.866 25.344,59.921 61.622,113.73 107.824,159.932 46.203,46.204 100.012,82.48 159.933,107.825 62.05,26.245 127.949,39.553 195.866,39.553 67.918,0 133.816,-13.308 195.867,-39.553 59.92,-25.345 113.73,-61.621 159.932,-107.825 46.202,-46.202 82.479,-100.011 107.823,-159.932 26.245,-62.05 39.553,-127.949 39.553,-195.866 0,-67.917 -13.308,-133.816 -39.553,-195.866 -25.344,-59.921 -61.621,-113.73 -107.823,-159.933 -46.202,-46.202 -100.012,-82.48 -159.933,-107.824 C 133.816,-942.728 67.918,-956.036 0,-956.036" fill="#231f20"/></g><g transform="translate(842.065 167.359)"><path d="M 0,0 -678.068,678.067 -642.49,713.646 35.578,35.578 0,0 Z" fill="#231f20"/></g></g></g></g></symbol><symbol viewBox="0 0 1280 1280" id="upload"><title>upload</title><g transform="matrix(1.25 0 0 -1.25 0 1280)"><g><g clip-path="url(#upload-a)"><g transform="translate(623.646 431.713)"><path d="m 0,0 c 3.047,0 6.119,1.168 8.455,3.5 4.637,4.668 4.637,12.238 0,16.891 l -80.253,80.179 c -4.638,4.667 -12.236,4.667 -16.902,0 l -80.137,-80.179 c -4.668,-4.653 -4.668,-12.223 0,-16.891 4.666,-4.666 12.179,-4.666 16.847,0 l 59.818,59.79 0,-268.094 c 0,-6.574 5.349,-11.952 11.923,-11.952 6.631,0 11.978,5.378 11.978,11.952 l 0,268.094 L -8.451,3.5 C -6.115,1.168 -3.044,0 0,0"/></g><g transform="translate(834.379 647.906)"><path d="m 0,0 c -5.82,0 -11.668,-0.276 -17.484,-0.825 -15.897,59.428 -50.683,113.1 -98.823,152.106 -25.537,20.692 -54.093,36.817 -84.877,47.926 -31.855,11.497 -65.332,17.326 -99.5,17.326 -57.774,0 -113.668,-16.795 -161.638,-48.569 -43.722,-28.961 -78.684,-68.769 -101.638,-115.595 -15.975,3.739 -32.38,5.631 -48.908,5.631 -117.911,0 -213.839,-95.928 -213.839,-213.839 0,-109.219 82.288,-200.303 189.467,-212.453 l 0,-1.386 317.861,0 0,25.545 -298.735,0 -5.628,0.32 c -99.488,5.661 -177.421,88.229 -177.421,187.974 0,103.826 84.469,188.295 188.295,188.295 17.809,0 35.447,-2.49 52.422,-7.401 l 10.69,-3.092 4.527,10.167 c 20.769,46.65 54.315,86.256 97.013,114.537 43.775,28.996 94.79,44.322 147.532,44.322 31.204,0 61.762,-5.319 90.829,-15.809 28.09,-10.138 54.154,-24.856 77.466,-43.746 46.725,-37.859 79.666,-90.827 92.757,-149.146 l 2.625,-11.697 11.839,1.88 c 8.299,1.317 16.767,1.985 25.168,1.985 87.834,0 159.292,-71.46 159.292,-159.296 0,-87.835 -71.458,-159.293 -159.292,-159.293 -2.982,0 -5.997,0.083 -8.96,0.248 l -13.48,0.748 0,-0.996 -234.939,0 0,-25.545 260.483,0 0,0.026 c 100.491,1.666 181.733,83.931 181.733,184.812 C 184.837,-82.919 101.919,0 0,0"/></g></g></g></g></symbol><symbol viewBox="0 0 1280 1280" id="url"><title>url</title><g transform="matrix(1.25 0 0 -1.25 0 1280)"><g><g clip-path="url(#url-a)"><g transform="translate(390.136 596.313)"><path d="m 0,0 c -4.434,-7.737 -1.756,-17.602 5.98,-22.034 l 224.016,-130.99 c 7.736,-4.433 17.601,-1.754 22.034,5.982 4.432,7.737 1.755,17.601 -5.981,22.034 L 22.034,5.981 C 14.297,10.414 4.433,7.735 0,0"/></g><g transform="translate(412.635 464.306)"><path d="m 0,0 c -1.122,-1.851 -3.088,-2.954 -5.261,-2.954 -1.121,0 -2.184,0.3 -3.16,0.892 L -366.36,212.343 c -2.823,1.777 -3.712,5.509 -1.976,8.371 l 105.372,173.672 c 1.122,1.849 3.089,2.954 5.261,2.954 1.122,0 2.186,-0.3 3.161,-0.892 L 103.397,182.043 c 2.823,-1.776 3.712,-5.51 1.977,-8.371 l -36.478,-61.92 24.892,-14.147 36.054,61.222 c 9.939,16.383 4.696,37.798 -11.687,47.737 l -357.988,214.434 c -5.405,3.247 -11.581,4.961 -17.87,4.961 -12.077,0 -23.468,-6.41 -29.73,-16.728 L -392.805,235.559 c -9.938,-16.382 -4.696,-37.796 11.685,-47.736 L -23.132,-26.61 c 5.406,-3.248 11.582,-4.963 17.871,-4.963 12.079,0 23.471,6.411 29.73,16.728 L 61.499,47.102 36.607,61.249 0,0 Z"/></g><g transform="translate(998.253 391.143)"><path d="m 0,0 -349.319,211.7 -0.258,0.159 c -5.44,3.301 -11.666,5.045 -18.009,5.045 -12.079,0 -23.468,-6.409 -29.727,-16.727 l -37.94,-62.094 24.891,-14.145 37.517,61.395 c 1.121,1.849 3.087,2.952 5.259,2.952 1.086,0 2.116,-0.28 3.065,-0.835 l 349.27,-211.666 0.259,-0.162 c 2.891,-1.753 3.819,-5.532 2.065,-8.422 L -118.3,-206.474 c -1.123,-1.849 -3.09,-2.954 -5.263,-2.954 -1.084,0 -2.115,0.282 -3.064,0.836 l -349.27,211.666 -0.259,0.159 c -2.892,1.755 -3.817,5.536 -2.064,8.427 l 34.752,62.541 -24.891,14.147 -34.327,-61.842 c -9.91,-16.332 -4.731,-37.668 11.536,-47.649 l 349.323,-211.699 0.256,-0.161 c 5.438,-3.298 11.664,-5.044 18.008,-5.044 12.078,0 23.469,6.408 29.73,16.73 L 11.54,-47.645 C 21.449,-31.313 16.267,-9.979 0,0"/></g></g></g></g></symbol></svg>