<?xml version="1.0" encoding="utf-8"?>
<!-- Generator: Adobe Illustrator 15.0.2, SVG Export Plug-In . SVG Version: 6.00 Build 0)  -->
<!DOCTYPE svg PUBLIC "-//W3C//DTD SVG 1.1//EN" "http://www.w3.org/Graphics/SVG/1.1/DTD/svg11.dtd">
<svg version="1.1" id="Layer_1" xmlns="http://www.w3.org/2000/svg" xmlns:xlink="http://www.w3.org/1999/xlink" x="0px" y="0px"
	 width="1024px" height="1024px" viewBox="0 0 1024 1024" enable-background="new 0 0 1024 1024" xml:space="preserve">
<path fill="#231F20" d="M511.231,9c-281.661,0-510,228.308-510,510.062c0,225.229,146.079,416.369,348.783,483.873
	c25.524,4.639,34.832-11.15,34.832-24.619c0-12.104-0.397-44.188-0.714-86.756c-141.855,30.814-171.763-68.346-171.763-68.346
	c-23.206-58.912-56.656-74.541-56.656-74.541c-46.284-31.703,3.542-31.037,3.542-31.037c51.224,3.605,78.146,52.545,78.146,52.545
	c45.443,77.955,119.348,55.367,148.431,42.344c4.59-32.99,17.757-55.369,32.322-68.139
	C304.89,731.551,185.86,687.682,185.86,492.284c0-55.592,19.901-101.177,52.447-136.788c-5.209-12.937-22.698-64.764,5.05-135.008
	c0,0,42.758-13.7,140.235,52.319c40.677-11.34,84.357-17.011,127.67-17.201c43.331,0.19,86.979,5.861,127.655,17.201
	c97.43-66.019,140.188-52.319,140.188-52.319c27.779,70.244,10.292,122.072,5.034,135.008
	c32.624,35.611,52.432,81.196,52.432,136.788c0,195.97-119.301,239.077-232.898,251.722c18.282,15.738,34.642,46.791,34.642,94.393
	c0,68.189-0.619,123.176-0.619,139.918c0,13.627,9.229,29.447,35.086,24.459c202.449-67.504,348.451-258.549,348.451-483.713
	C1021.232,237.308,792.955,9,511.231,9"/>
</svg>
