<?xml version="1.0" encoding="utf-8"?>
<!-- Generator: Adobe Illustrator 15.0.2, SVG Export Plug-In . SVG Version: 6.00 Build 0)  -->
<!DOCTYPE svg PUBLIC "-//W3C//DTD SVG 1.1//EN" "http://www.w3.org/Graphics/SVG/1.1/DTD/svg11.dtd">
<svg version="1.1" id="Layer_1" xmlns="http://www.w3.org/2000/svg" xmlns:xlink="http://www.w3.org/1999/xlink" x="0px" y="0px"
	 width="1024px" height="1024px" viewBox="0 0 1024 1024" enable-background="new 0 0 1024 1024" xml:space="preserve">
<g>
	<path fill="#231F20" d="M419.77,261.501c-77.375-30.164-155.064-59.549-232.656-89.103h-1.392
		c12.096,26.093,23.629,52.452,35.456,78.666C287.359,254.699,353.563,258.015,419.77,261.501z"/>
	<path fill="#231F20" d="M772.036,185.835c-62.399-0.048-124.803-0.024-187.206-0.024c21.195,28.335,42.456,56.646,63.696,84.958
		c124.363-28.458,248.824-56.427,373.015-85.567C938.365,185.494,855.188,184.568,772.036,185.835z"/>
	<path fill="#231F20" d="M571.663,185.64c-35.82,25.628-71.325,51.721-106.707,77.911c56.938,3.292,113.951,5.534,170.937,8.388
		C614.85,242.92,592.759,214.658,571.663,185.64z"/>
	<path fill="#231F20" d="M440.521,272.962c-146.309-7.705-292.644-15.387-438.978-22.872v0.584
		c95.614,103.905,191.618,207.443,287.621,310.982C339.69,465.458,390.19,369.258,440.521,272.962z"/>
	<path fill="#231F20" d="M295.993,569.387c48.28,51.965,96.369,104.1,144.48,156.209c50.794-50.82,102.271-100.977,153.209-151.627
		c3.367-5.142,3.05-11.729,4.343-17.555c15.266-91.322,30.849-182.595,46.135-273.918c-64.446-2.853-128.872-6.194-193.322-8.948
		C399.554,372.332,347.396,470.651,295.993,569.387z"/>
	<path fill="#231F20" d="M234.396,927.092c10.387-7.413,18.36-17.461,27.896-25.853c56.646-56.353,113.876-112.096,170.475-168.521
		c-40.138-43.162-79.934-86.642-120.071-129.803C286.774,711.015,259.757,818.868,234.396,927.092z"/>
</g>
</svg>
