<?xml version="1.0" encoding="utf-8"?>
<!-- Generator: Adobe Illustrator 15.0.2, SVG Export Plug-In . SVG Version: 6.00 Build 0)  -->
<!DOCTYPE svg PUBLIC "-//W3C//DTD SVG 1.1//EN" "http://www.w3.org/Graphics/SVG/1.1/DTD/svg11.dtd">
<svg version="1.1" id="Layer_1" xmlns="http://www.w3.org/2000/svg" xmlns:xlink="http://www.w3.org/1999/xlink" x="0px" y="0px"
	 width="1024px" height="1024px" viewBox="0 0 1024 1024" enable-background="new 0 0 1024 1024" xml:space="preserve">
<g>
	<path fill="#231F20" d="M511.686,1.976c-281.58,0-509.887,228.307-509.887,509.886c0,281.812,228.309,510.342,509.887,510.342
		c281.81,0,510.113-228.53,510.113-510.342C1021.799,230.283,793.496,1.976,511.686,1.976z M511.686,931.578
		c-231.536,0-419.254-187.952-419.254-419.716c0-231.537,187.719-419.256,419.254-419.256
		c231.767,0,419.488,187.721,419.488,419.256C931.173,743.625,743.452,931.578,511.686,931.578z"/>
	<path fill="#231F20" d="M292.576,289.731c-52.902,0-95.781,42.879-95.781,95.809c0,52.875,42.879,95.753,95.781,95.753
		c52.902,0,95.797-42.878,95.797-95.753C388.374,332.61,345.479,289.731,292.576,289.731z"/>
	<path fill="#231F20" d="M723.408,289.731c-52.887,0-95.78,42.879-95.78,95.809c0,52.875,42.894,95.753,95.78,95.753
		c52.903,0,95.783-42.878,95.783-95.753C819.191,332.61,776.312,289.731,723.408,289.731z"/>
</g>
</svg>
