<?xml version="1.0" encoding="utf-8"?>
<!-- Generator: Adobe Illustrator 15.0.2, SVG Export Plug-In . SVG Version: 6.00 Build 0)  -->
<!DOCTYPE svg PUBLIC "-//W3C//DTD SVG 1.1//EN" "http://www.w3.org/Graphics/SVG/1.1/DTD/svg11.dtd">
<svg version="1.1" id="Layer_1" xmlns="http://www.w3.org/2000/svg" xmlns:xlink="http://www.w3.org/1999/xlink" x="0px" y="0px"
	 width="1024px" height="1024px" viewBox="0 0 1024 1024" enable-background="new 0 0 1024 1024" xml:space="preserve">
<g>
	<rect x="17.738" y="340.241" fill="#231F20" width="211.166" height="678.396"/>
	<path fill="#231F20" d="M123.396,2.998C55.632,2.998,1,57.814,1,125.222c0,67.461,54.632,122.277,122.396,122.277
		c67.516,0,122.268-54.816,122.268-122.277C245.664,57.814,190.912,2.998,123.396,2.998z"/>
	<path fill="#231F20" d="M766.043,323.373c-102.639,0-171.519,56.202-199.646,109.578h-2.858v-92.709H361.294v678.396h210.711
		V682.996c0-88.443,16.738-174.138,126.522-174.138c108.137,0,109.696,101.208,109.696,179.952v329.826H1019V646.531
		C1019,463.83,979.503,323.373,766.043,323.373z"/>
</g>
</svg>
